<svg width="140" height="52" viewBox="0 0 140 52" fill="none" xmlns="http://www.w3.org/2000/svg">
<mask id="path-1-outside-1_5_409" maskUnits="userSpaceOnUse" x="0" y="2" width="137" height="51" fill="black">
<rect fill="white" y="2" width="137" height="51"/>
<path d="M10.9716 18.6364H15.517L17.4489 21.1023L19.983 24.0114L23.8807 28.8182H18.7898L16.0625 25.5568L14.4489 23.2386L10.9716 18.6364ZM24.0398 15.3636C24.0398 17.9242 23.5473 20.0947 22.5625 21.875C21.5777 23.6553 20.2443 25.0076 18.5625 25.9318C16.8883 26.8561 15.0095 27.3182 12.9261 27.3182C10.8352 27.3182 8.95265 26.8523 7.27841 25.9205C5.60417 24.9886 4.27462 23.6364 3.28977 21.8636C2.3125 20.0833 1.82386 17.9167 1.82386 15.3636C1.82386 12.803 2.3125 10.6326 3.28977 8.85227C4.27462 7.07197 5.60417 5.7197 7.27841 4.79545C8.95265 3.87121 10.8352 3.40909 12.9261 3.40909C15.0095 3.40909 16.8883 3.87121 18.5625 4.79545C20.2443 5.7197 21.5777 7.07197 22.5625 8.85227C23.5473 10.6326 24.0398 12.803 24.0398 15.3636ZM18.2898 15.3636C18.2898 13.8485 18.0739 12.5682 17.642 11.5227C17.2178 10.4773 16.6042 9.6856 15.8011 9.14773C15.0057 8.60985 14.0473 8.34091 12.9261 8.34091C11.8125 8.34091 10.8542 8.60985 10.0511 9.14773C9.24811 9.6856 8.63068 10.4773 8.19886 11.5227C7.77462 12.5682 7.5625 13.8485 7.5625 15.3636C7.5625 16.8788 7.77462 18.1591 8.19886 19.2045C8.63068 20.25 9.24811 21.0417 10.0511 21.5795C10.8542 22.1174 11.8125 22.3864 12.9261 22.3864C14.0473 22.3864 15.0057 22.1174 15.8011 21.5795C16.6042 21.0417 17.2178 20.25 17.642 19.2045C18.0739 18.1591 18.2898 16.8788 18.2898 15.3636ZM41.4347 3.72727H47.0483V18.7386C47.0483 20.4735 46.6354 21.9848 45.8097 23.2727C44.9839 24.553 43.8324 25.5455 42.3551 26.25C40.8778 26.947 39.1619 27.2955 37.2074 27.2955C35.2301 27.2955 33.5028 26.947 32.0256 26.25C30.5483 25.5455 29.4006 24.553 28.5824 23.2727C27.7642 21.9848 27.3551 20.4735 27.3551 18.7386V3.72727H32.9801V18.25C32.9801 19.053 33.1544 19.7689 33.5028 20.3977C33.8589 21.0265 34.3551 21.5189 34.9915 21.875C35.6278 22.2311 36.3665 22.4091 37.2074 22.4091C38.0483 22.4091 38.7831 22.2311 39.4119 21.875C40.0483 21.5189 40.5445 21.0265 40.9006 20.3977C41.2566 19.7689 41.4347 19.053 41.4347 18.25V3.72727ZM50.5739 27V3.72727H66.8011V8.29545H56.1989V13.0682H65.9716V17.6477H56.1989V22.4318H66.8011V27H50.5739ZM70.3239 27V3.72727H80.0284C81.7708 3.72727 83.2292 3.97348 84.4034 4.46591C85.5852 4.95833 86.4716 5.64773 87.0625 6.53409C87.661 7.42045 87.9602 8.44697 87.9602 9.61364C87.9602 10.5 87.7746 11.2917 87.4034 11.9886C87.0322 12.678 86.5208 13.25 85.8693 13.7045C85.2178 14.1591 84.464 14.4773 83.608 14.6591V14.8864C84.5473 14.9318 85.4148 15.1856 86.2102 15.6477C87.0133 16.1098 87.6572 16.7538 88.142 17.5795C88.6269 18.3977 88.8693 19.3674 88.8693 20.4886C88.8693 21.7386 88.5511 22.8561 87.9148 23.8409C87.2784 24.8182 86.358 25.5909 85.1534 26.1591C83.9489 26.7197 82.4867 27 80.767 27H70.3239ZM75.9489 22.4659H79.4261C80.6458 22.4659 81.5436 22.2348 82.1193 21.7727C82.7027 21.3106 82.9943 20.6667 82.9943 19.8409C82.9943 19.2424 82.8542 18.7273 82.5739 18.2955C82.2936 17.8561 81.8958 17.5189 81.3807 17.2841C80.8655 17.0417 80.2481 16.9205 79.5284 16.9205H75.9489V22.4659ZM75.9489 13.2955H79.0625C79.6761 13.2955 80.2216 13.1932 80.6989 12.9886C81.1761 12.7841 81.5473 12.4886 81.8125 12.1023C82.0852 11.7159 82.2216 11.25 82.2216 10.7045C82.2216 9.92424 81.9451 9.31061 81.392 8.86364C80.839 8.41667 80.0928 8.19318 79.1534 8.19318H75.9489V13.2955ZM91.5739 27V3.72727H101.188C102.93 3.72727 104.434 4.04167 105.699 4.67045C106.972 5.29167 107.953 6.18561 108.642 7.35227C109.331 8.51136 109.676 9.88636 109.676 11.4773C109.676 13.0909 109.324 14.4621 108.619 15.5909C107.915 16.7121 106.915 17.5682 105.619 18.1591C104.324 18.7424 102.79 19.0341 101.017 19.0341H94.9375V14.6023H99.9716C100.82 14.6023 101.528 14.4924 102.097 14.2727C102.672 14.0455 103.108 13.7045 103.403 13.25C103.699 12.7879 103.847 12.197 103.847 11.4773C103.847 10.7576 103.699 10.1629 103.403 9.69318C103.108 9.21591 102.672 8.85985 102.097 8.625C101.521 8.38258 100.813 8.26136 99.9716 8.26136H97.1989V27H91.5739ZM104.676 16.3636L110.472 27H104.335L98.6534 16.3636H104.676ZM117.795 27H111.75L119.602 3.72727H127.091L134.943 27H128.898L123.432 9.59091H123.25L117.795 27ZM116.989 17.8409H129.625V22.1136H116.989V17.8409ZM41.6122 35.3295C41.4834 34.8523 41.294 34.4318 41.044 34.0682C40.794 33.697 40.4872 33.3826 40.1236 33.125C39.7599 32.8674 39.3433 32.6742 38.8736 32.5455C38.4039 32.4091 37.8887 32.3409 37.3281 32.3409C36.1993 32.3409 35.2221 32.6136 34.3963 33.1591C33.5781 33.7045 32.9455 34.5 32.4986 35.5455C32.0516 36.5833 31.8281 37.8447 31.8281 39.3295C31.8281 40.822 32.044 42.0947 32.4759 43.1477C32.9077 44.2008 33.5327 45.0038 34.3509 45.5568C35.169 46.1098 36.1615 46.3864 37.3281 46.3864C38.3584 46.3864 39.2296 46.2197 39.9418 45.8864C40.6615 45.5455 41.2069 45.0644 41.5781 44.4432C41.9493 43.822 42.1349 43.0909 42.1349 42.25L43.1804 42.375H37.5213V38.2727H47.5554V41.3523C47.5554 43.4356 47.1122 45.2197 46.2259 46.7045C45.3471 48.1894 44.1349 49.3295 42.5895 50.125C41.0516 50.9205 39.2827 51.3182 37.2827 51.3182C35.063 51.3182 33.1122 50.8371 31.4304 49.875C29.7486 48.9129 28.438 47.5417 27.4986 45.7614C26.5592 43.9735 26.0895 41.8523 26.0895 39.3977C26.0895 37.4886 26.3736 35.7955 26.9418 34.3182C27.5099 32.8333 28.3016 31.5758 29.3168 30.5455C30.3395 29.5152 31.5213 28.7348 32.8622 28.2045C34.2107 27.6742 35.6615 27.4091 37.2145 27.4091C38.563 27.4091 39.8168 27.6023 40.9759 27.9886C42.1425 28.375 43.1728 28.9205 44.0668 29.625C44.9683 30.3295 45.6993 31.1667 46.2599 32.1364C46.8205 33.1061 47.169 34.1705 47.3054 35.3295H41.6122ZM50.8707 51V27.7273H67.098V32.2955H56.4957V37.0682H66.2685V41.6477H56.4957V46.4318H67.098V51H50.8707ZM70.6207 51V27.7273H76.2457V46.4318H85.9276V51H70.6207ZM109.899 39.3636C109.899 41.9242 109.407 44.0947 108.422 45.875C107.437 47.6553 106.104 49.0076 104.422 49.9318C102.748 50.8561 100.869 51.3182 98.7855 51.3182C96.6946 51.3182 94.812 50.8523 93.1378 49.9205C91.4635 48.9886 90.134 47.6364 89.1491 45.8636C88.1719 44.0833 87.6832 41.9167 87.6832 39.3636C87.6832 36.803 88.1719 34.6326 89.1491 32.8523C90.134 31.072 91.4635 29.7197 93.1378 28.7955C94.812 27.8712 96.6946 27.4091 98.7855 27.4091C100.869 27.4091 102.748 27.8712 104.422 28.7955C106.104 29.7197 107.437 31.072 108.422 32.8523C109.407 34.6326 109.899 36.803 109.899 39.3636ZM104.149 39.3636C104.149 37.8485 103.933 36.5682 103.501 35.5227C103.077 34.4773 102.464 33.6856 101.661 33.1477C100.865 32.6098 99.9067 32.3409 98.7855 32.3409C97.6719 32.3409 96.7135 32.6098 95.9105 33.1477C95.1075 33.6856 94.4901 34.4773 94.0582 35.5227C93.634 36.5682 93.4219 37.8485 93.4219 39.3636C93.4219 40.8788 93.634 42.1591 94.0582 43.2045C94.4901 44.25 95.1075 45.0417 95.9105 45.5795C96.7135 46.1174 97.6719 46.3864 98.7855 46.3864C99.9067 46.3864 100.865 46.1174 101.661 45.5795C102.464 45.0417 103.077 44.25 103.501 43.2045C103.933 42.1591 104.149 40.8788 104.149 39.3636Z"/>
</mask>
<path d="M10.9716 18.6364H15.517L17.4489 21.1023L19.983 24.0114L23.8807 28.8182H18.7898L16.0625 25.5568L14.4489 23.2386L10.9716 18.6364ZM24.0398 15.3636C24.0398 17.9242 23.5473 20.0947 22.5625 21.875C21.5777 23.6553 20.2443 25.0076 18.5625 25.9318C16.8883 26.8561 15.0095 27.3182 12.9261 27.3182C10.8352 27.3182 8.95265 26.8523 7.27841 25.9205C5.60417 24.9886 4.27462 23.6364 3.28977 21.8636C2.3125 20.0833 1.82386 17.9167 1.82386 15.3636C1.82386 12.803 2.3125 10.6326 3.28977 8.85227C4.27462 7.07197 5.60417 5.7197 7.27841 4.79545C8.95265 3.87121 10.8352 3.40909 12.9261 3.40909C15.0095 3.40909 16.8883 3.87121 18.5625 4.79545C20.2443 5.7197 21.5777 7.07197 22.5625 8.85227C23.5473 10.6326 24.0398 12.803 24.0398 15.3636ZM18.2898 15.3636C18.2898 13.8485 18.0739 12.5682 17.642 11.5227C17.2178 10.4773 16.6042 9.6856 15.8011 9.14773C15.0057 8.60985 14.0473 8.34091 12.9261 8.34091C11.8125 8.34091 10.8542 8.60985 10.0511 9.14773C9.24811 9.6856 8.63068 10.4773 8.19886 11.5227C7.77462 12.5682 7.5625 13.8485 7.5625 15.3636C7.5625 16.8788 7.77462 18.1591 8.19886 19.2045C8.63068 20.25 9.24811 21.0417 10.0511 21.5795C10.8542 22.1174 11.8125 22.3864 12.9261 22.3864C14.0473 22.3864 15.0057 22.1174 15.8011 21.5795C16.6042 21.0417 17.2178 20.25 17.642 19.2045C18.0739 18.1591 18.2898 16.8788 18.2898 15.3636ZM41.4347 3.72727H47.0483V18.7386C47.0483 20.4735 46.6354 21.9848 45.8097 23.2727C44.9839 24.553 43.8324 25.5455 42.3551 26.25C40.8778 26.947 39.1619 27.2955 37.2074 27.2955C35.2301 27.2955 33.5028 26.947 32.0256 26.25C30.5483 25.5455 29.4006 24.553 28.5824 23.2727C27.7642 21.9848 27.3551 20.4735 27.3551 18.7386V3.72727H32.9801V18.25C32.9801 19.053 33.1544 19.7689 33.5028 20.3977C33.8589 21.0265 34.3551 21.5189 34.9915 21.875C35.6278 22.2311 36.3665 22.4091 37.2074 22.4091C38.0483 22.4091 38.7831 22.2311 39.4119 21.875C40.0483 21.5189 40.5445 21.0265 40.9006 20.3977C41.2566 19.7689 41.4347 19.053 41.4347 18.25V3.72727ZM50.5739 27V3.72727H66.8011V8.29545H56.1989V13.0682H65.9716V17.6477H56.1989V22.4318H66.8011V27H50.5739ZM70.3239 27V3.72727H80.0284C81.7708 3.72727 83.2292 3.97348 84.4034 4.46591C85.5852 4.95833 86.4716 5.64773 87.0625 6.53409C87.661 7.42045 87.9602 8.44697 87.9602 9.61364C87.9602 10.5 87.7746 11.2917 87.4034 11.9886C87.0322 12.678 86.5208 13.25 85.8693 13.7045C85.2178 14.1591 84.464 14.4773 83.608 14.6591V14.8864C84.5473 14.9318 85.4148 15.1856 86.2102 15.6477C87.0133 16.1098 87.6572 16.7538 88.142 17.5795C88.6269 18.3977 88.8693 19.3674 88.8693 20.4886C88.8693 21.7386 88.5511 22.8561 87.9148 23.8409C87.2784 24.8182 86.358 25.5909 85.1534 26.1591C83.9489 26.7197 82.4867 27 80.767 27H70.3239ZM75.9489 22.4659H79.4261C80.6458 22.4659 81.5436 22.2348 82.1193 21.7727C82.7027 21.3106 82.9943 20.6667 82.9943 19.8409C82.9943 19.2424 82.8542 18.7273 82.5739 18.2955C82.2936 17.8561 81.8958 17.5189 81.3807 17.2841C80.8655 17.0417 80.2481 16.9205 79.5284 16.9205H75.9489V22.4659ZM75.9489 13.2955H79.0625C79.6761 13.2955 80.2216 13.1932 80.6989 12.9886C81.1761 12.7841 81.5473 12.4886 81.8125 12.1023C82.0852 11.7159 82.2216 11.25 82.2216 10.7045C82.2216 9.92424 81.9451 9.31061 81.392 8.86364C80.839 8.41667 80.0928 8.19318 79.1534 8.19318H75.9489V13.2955ZM91.5739 27V3.72727H101.188C102.93 3.72727 104.434 4.04167 105.699 4.67045C106.972 5.29167 107.953 6.18561 108.642 7.35227C109.331 8.51136 109.676 9.88636 109.676 11.4773C109.676 13.0909 109.324 14.4621 108.619 15.5909C107.915 16.7121 106.915 17.5682 105.619 18.1591C104.324 18.7424 102.79 19.0341 101.017 19.0341H94.9375V14.6023H99.9716C100.82 14.6023 101.528 14.4924 102.097 14.2727C102.672 14.0455 103.108 13.7045 103.403 13.25C103.699 12.7879 103.847 12.197 103.847 11.4773C103.847 10.7576 103.699 10.1629 103.403 9.69318C103.108 9.21591 102.672 8.85985 102.097 8.625C101.521 8.38258 100.813 8.26136 99.9716 8.26136H97.1989V27H91.5739ZM104.676 16.3636L110.472 27H104.335L98.6534 16.3636H104.676ZM117.795 27H111.75L119.602 3.72727H127.091L134.943 27H128.898L123.432 9.59091H123.25L117.795 27ZM116.989 17.8409H129.625V22.1136H116.989V17.8409ZM41.6122 35.3295C41.4834 34.8523 41.294 34.4318 41.044 34.0682C40.794 33.697 40.4872 33.3826 40.1236 33.125C39.7599 32.8674 39.3433 32.6742 38.8736 32.5455C38.4039 32.4091 37.8887 32.3409 37.3281 32.3409C36.1993 32.3409 35.2221 32.6136 34.3963 33.1591C33.5781 33.7045 32.9455 34.5 32.4986 35.5455C32.0516 36.5833 31.8281 37.8447 31.8281 39.3295C31.8281 40.822 32.044 42.0947 32.4759 43.1477C32.9077 44.2008 33.5327 45.0038 34.3509 45.5568C35.169 46.1098 36.1615 46.3864 37.3281 46.3864C38.3584 46.3864 39.2296 46.2197 39.9418 45.8864C40.6615 45.5455 41.2069 45.0644 41.5781 44.4432C41.9493 43.822 42.1349 43.0909 42.1349 42.25L43.1804 42.375H37.5213V38.2727H47.5554V41.3523C47.5554 43.4356 47.1122 45.2197 46.2259 46.7045C45.3471 48.1894 44.1349 49.3295 42.5895 50.125C41.0516 50.9205 39.2827 51.3182 37.2827 51.3182C35.063 51.3182 33.1122 50.8371 31.4304 49.875C29.7486 48.9129 28.438 47.5417 27.4986 45.7614C26.5592 43.9735 26.0895 41.8523 26.0895 39.3977C26.0895 37.4886 26.3736 35.7955 26.9418 34.3182C27.5099 32.8333 28.3016 31.5758 29.3168 30.5455C30.3395 29.5152 31.5213 28.7348 32.8622 28.2045C34.2107 27.6742 35.6615 27.4091 37.2145 27.4091C38.563 27.4091 39.8168 27.6023 40.9759 27.9886C42.1425 28.375 43.1728 28.9205 44.0668 29.625C44.9683 30.3295 45.6993 31.1667 46.2599 32.1364C46.8205 33.1061 47.169 34.1705 47.3054 35.3295H41.6122ZM50.8707 51V27.7273H67.098V32.2955H56.4957V37.0682H66.2685V41.6477H56.4957V46.4318H67.098V51H50.8707ZM70.6207 51V27.7273H76.2457V46.4318H85.9276V51H70.6207ZM109.899 39.3636C109.899 41.9242 109.407 44.0947 108.422 45.875C107.437 47.6553 106.104 49.0076 104.422 49.9318C102.748 50.8561 100.869 51.3182 98.7855 51.3182C96.6946 51.3182 94.812 50.8523 93.1378 49.9205C91.4635 48.9886 90.134 47.6364 89.1491 45.8636C88.1719 44.0833 87.6832 41.9167 87.6832 39.3636C87.6832 36.803 88.1719 34.6326 89.1491 32.8523C90.134 31.072 91.4635 29.7197 93.1378 28.7955C94.812 27.8712 96.6946 27.4091 98.7855 27.4091C100.869 27.4091 102.748 27.8712 104.422 28.7955C106.104 29.7197 107.437 31.072 108.422 32.8523C109.407 34.6326 109.899 36.803 109.899 39.3636ZM104.149 39.3636C104.149 37.8485 103.933 36.5682 103.501 35.5227C103.077 34.4773 102.464 33.6856 101.661 33.1477C100.865 32.6098 99.9067 32.3409 98.7855 32.3409C97.6719 32.3409 96.7135 32.6098 95.9105 33.1477C95.1075 33.6856 94.4901 34.4773 94.0582 35.5227C93.634 36.5682 93.4219 37.8485 93.4219 39.3636C93.4219 40.8788 93.634 42.1591 94.0582 43.2045C94.4901 44.25 95.1075 45.0417 95.9105 45.5795C96.7135 46.1174 97.6719 46.3864 98.7855 46.3864C99.9067 46.3864 100.865 46.1174 101.661 45.5795C102.464 45.0417 103.077 44.25 103.501 43.2045C103.933 42.1591 104.149 40.8788 104.149 39.3636Z" fill="black"/>
<path d="M10.9716 18.6364V17.6364H8.96269L10.1737 19.2392L10.9716 18.6364ZM15.517 18.6364L16.3042 18.0197L16.004 17.6364H15.517V18.6364ZM17.4489 21.1023L16.6617 21.719L16.6777 21.7395L16.6948 21.7591L17.4489 21.1023ZM19.983 24.0114L20.7597 23.3815L20.7486 23.3678L20.737 23.3545L19.983 24.0114ZM23.8807 28.8182V29.8182H25.979L24.6574 28.1884L23.8807 28.8182ZM18.7898 28.8182L18.0226 29.4597L18.3224 29.8182H18.7898V28.8182ZM16.0625 25.5568L15.2418 26.1281L15.267 26.1644L15.2954 26.1983L16.0625 25.5568ZM14.4489 23.2386L15.2696 22.6673L15.2585 22.6513L15.2467 22.6358L14.4489 23.2386ZM22.5625 21.875L21.6875 21.3909V21.3909L22.5625 21.875ZM18.5625 25.9318L18.0809 25.0554L18.0792 25.0564L18.5625 25.9318ZM7.27841 25.9205L7.76472 25.0467L7.27841 25.9205ZM3.28977 21.8636L2.41315 22.3448L2.41562 22.3493L3.28977 21.8636ZM3.28977 8.85227L2.41473 8.36821L2.41316 8.37107L3.28977 8.85227ZM7.27841 4.79545L7.7617 5.67092L7.27841 4.79545ZM18.5625 4.79545L18.0792 5.67092L18.0809 5.67184L18.5625 4.79545ZM22.5625 8.85227L21.6875 9.33633V9.33633L22.5625 8.85227ZM17.642 11.5227L16.7154 11.8988L16.7178 11.9045L17.642 11.5227ZM15.8011 9.14773L15.241 9.97613L15.2446 9.97857L15.8011 9.14773ZM10.0511 9.14773L10.6076 9.97857H10.6076L10.0511 9.14773ZM8.19886 11.5227L7.27458 11.141L7.27225 11.1467L8.19886 11.5227ZM8.19886 19.2045L7.27223 19.5806L7.2746 19.5863L8.19886 19.2045ZM10.0511 21.5795L10.6076 20.7487L10.0511 21.5795ZM15.8011 21.5795L15.2446 20.7487L15.241 20.7512L15.8011 21.5795ZM17.642 19.2045L16.7178 18.8228L16.7154 18.8285L17.642 19.2045ZM10.9716 19.6364H15.517V17.6364H10.9716V19.6364ZM14.7298 19.2531L16.6617 21.719L18.2361 20.4856L16.3042 18.0197L14.7298 19.2531ZM16.6948 21.7591L19.2289 24.6682L20.737 23.3545L18.2029 20.4454L16.6948 21.7591ZM19.2062 24.6412L23.104 29.448L24.6574 28.1884L20.7597 23.3815L19.2062 24.6412ZM23.8807 27.8182H18.7898V29.8182H23.8807V27.8182ZM19.5569 28.1767L16.8296 24.9153L15.2954 26.1983L18.0226 29.4597L19.5569 28.1767ZM16.8832 24.9855L15.2696 22.6673L13.6281 23.8099L15.2418 26.1281L16.8832 24.9855ZM15.2467 22.6358L11.7695 18.0335L10.1737 19.2392L13.651 23.8415L15.2467 22.6358ZM23.0398 15.3636C23.0398 17.7979 22.5718 19.7924 21.6875 21.3909L23.4375 22.3591C24.5229 20.397 25.0398 18.0506 25.0398 15.3636H23.0398ZM21.6875 21.3909C20.7883 23.0163 19.587 24.2277 18.0809 25.0554L19.0441 26.8082C20.9016 25.7874 22.367 24.2943 23.4375 22.3591L21.6875 21.3909ZM18.0792 25.0564C16.566 25.8917 14.8559 26.3182 12.9261 26.3182V28.3182C15.163 28.3182 17.2106 27.8204 19.0458 26.8073L18.0792 25.0564ZM12.9261 26.3182C10.9895 26.3182 9.27691 25.8883 7.76472 25.0467L6.7921 26.7942C8.62839 27.8162 10.681 28.3182 12.9261 28.3182V26.3182ZM7.76472 25.0467C6.26309 24.2109 5.06374 22.9977 4.16393 21.378L2.41562 22.3493C3.4855 24.2751 4.94525 25.7664 6.7921 26.7942L7.76472 25.0467ZM4.16638 21.3824C3.2883 19.7828 2.82386 17.7909 2.82386 15.3636H0.823864C0.823864 18.0424 1.3367 20.3838 2.41316 22.3448L4.16638 21.3824ZM2.82386 15.3636C2.82386 12.9282 3.28852 10.9327 4.16638 9.33347L2.41316 8.37107C1.33648 10.3325 0.823864 12.6779 0.823864 15.3636H2.82386ZM4.16481 9.33633C5.0646 7.70978 6.26294 6.49828 7.7617 5.67092L6.79512 3.91999C4.94539 4.94111 3.48464 6.43416 2.41474 8.36821L4.16481 9.33633ZM7.7617 5.67092C9.27442 4.83584 10.9881 4.40909 12.9261 4.40909V2.40909C10.6824 2.40909 8.63089 2.90658 6.79512 3.91999L7.7617 5.67092ZM12.9261 4.40909C14.8559 4.40909 16.566 4.83554 18.0792 5.67092L19.0458 3.91999C17.2106 2.90688 15.163 2.40909 12.9261 2.40909V4.40909ZM18.0809 5.67184C19.587 6.49953 20.7883 7.71093 21.6875 9.33633L23.4375 8.36821C22.367 6.43301 20.9016 4.93987 19.0441 3.91907L18.0809 5.67184ZM21.6875 9.33633C22.5718 10.9349 23.0398 12.9294 23.0398 15.3636H25.0398C25.0398 12.6767 24.5229 10.3302 23.4375 8.36821L21.6875 9.33633ZM19.2898 15.3636C19.2898 13.7595 19.062 12.341 18.5663 11.141L16.7178 11.9045C17.0857 12.7953 17.2898 13.9375 17.2898 15.3636H19.2898ZM18.5687 11.1467C18.0822 9.94784 17.3531 8.98364 16.3576 8.31688L15.2446 9.97857C15.8552 10.3876 16.3534 11.0067 16.7154 11.8987L18.5687 11.1467ZM16.3613 8.31933C15.3741 7.65183 14.2127 7.34091 12.9261 7.34091V9.34091C13.882 9.34091 14.6372 9.56787 15.241 9.97612L16.3613 8.31933ZM12.9261 7.34091C11.6453 7.34091 10.4863 7.65265 9.49463 8.31688L10.6076 9.97857C11.222 9.56705 11.9797 9.34091 12.9261 9.34091V7.34091ZM9.49463 8.31688C8.50085 8.98253 7.76876 9.94459 7.2746 11.141L9.12313 11.9045C9.49261 11.01 9.99536 10.3887 10.6076 9.97857L9.49463 8.31688ZM7.27225 11.1467C6.78602 12.3449 6.5625 13.7612 6.5625 15.3636H8.5625C8.5625 13.9358 8.76322 12.7914 9.12548 11.8987L7.27225 11.1467ZM6.5625 15.3636C6.5625 16.9661 6.78602 18.3824 7.27225 19.5806L9.12548 18.8285C8.76322 17.9358 8.5625 16.7915 8.5625 15.3636H6.5625ZM7.2746 19.5863C7.76876 20.7827 8.50085 21.7447 9.49463 22.4104L10.6076 20.7487C9.99536 20.3386 9.49261 19.7173 9.12313 18.8228L7.2746 19.5863ZM9.49463 22.4104C10.4863 23.0746 11.6453 23.3864 12.9261 23.3864V21.3864C11.9797 21.3864 11.222 21.1602 10.6076 20.7487L9.49463 22.4104ZM12.9261 23.3864C14.2127 23.3864 15.3741 23.0754 16.3613 22.4079L15.241 20.7512C14.6372 21.1594 13.882 21.3864 12.9261 21.3864V23.3864ZM16.3576 22.4104C17.3531 21.7436 18.0822 20.7794 18.5687 19.5806L16.7154 18.8285C16.3534 19.7206 15.8552 20.3397 15.2446 20.7487L16.3576 22.4104ZM18.5663 19.5863C19.062 18.3863 19.2898 16.9678 19.2898 15.3636H17.2898C17.2898 16.7898 17.0857 17.9319 16.7178 18.8228L18.5663 19.5863ZM41.4347 3.72727V2.72727H40.4347V3.72727H41.4347ZM47.0483 3.72727H48.0483V2.72727H47.0483V3.72727ZM45.8097 23.2727L46.65 23.8147L46.6515 23.8125L45.8097 23.2727ZM42.3551 26.25L42.7818 27.1544L42.7856 27.1526L42.3551 26.25ZM32.0256 26.25L31.5951 27.1526L31.5989 27.1544L32.0256 26.25ZM28.5824 23.2727L27.7383 23.809L27.7398 23.8112L28.5824 23.2727ZM27.3551 3.72727V2.72727H26.3551V3.72727H27.3551ZM32.9801 3.72727H33.9801V2.72727H32.9801V3.72727ZM33.5028 20.3977L32.6282 20.8825L32.6327 20.8905L33.5028 20.3977ZM34.9915 21.875L35.4798 21.0023H35.4798L34.9915 21.875ZM39.4119 21.875L38.9236 21.0023L38.9192 21.0048L39.4119 21.875ZM41.4347 4.72727H47.0483V2.72727H41.4347V4.72727ZM46.0483 3.72727V18.7386H48.0483V3.72727H46.0483ZM46.0483 18.7386C46.0483 20.3085 45.677 21.627 44.9678 22.733L46.6515 23.8125C47.5939 22.3427 48.0483 20.6385 48.0483 18.7386H46.0483ZM44.9693 22.7307C44.2516 23.8435 43.2474 24.7165 41.9246 25.3474L42.7856 27.1526C44.4174 26.3744 45.7162 25.2626 46.65 23.8147L44.9693 22.7307ZM41.9284 25.3456C40.6083 25.9685 39.043 26.2955 37.2074 26.2955V28.2955C39.2809 28.2955 41.1474 27.9255 42.7818 27.1544L41.9284 25.3456ZM37.2074 26.2955C35.3471 26.2955 33.771 25.9678 32.4523 25.3456L31.5989 27.1544C33.2347 27.9262 35.1131 28.2955 37.2074 28.2955V26.2955ZM32.456 25.3474C31.1339 24.7169 30.1348 23.8448 29.425 22.7342L27.7398 23.8112C28.6664 25.2612 29.9627 26.3741 31.5951 27.1526L32.456 25.3474ZM29.4265 22.7365C28.7236 21.6301 28.3551 20.3103 28.3551 18.7386H26.3551C26.3551 20.6367 26.8049 22.3396 27.7383 23.809L29.4265 22.7365ZM28.3551 18.7386V3.72727H26.3551V18.7386H28.3551ZM27.3551 4.72727H32.9801V2.72727H27.3551V4.72727ZM31.9801 3.72727V18.25H33.9801V3.72727H31.9801ZM31.9801 18.25C31.9801 19.2024 32.1882 20.0886 32.6282 20.8825L34.3775 19.913C34.1205 19.4493 33.9801 18.9037 33.9801 18.25H31.9801ZM32.6327 20.8905C33.0797 21.68 33.7087 22.3032 34.5032 22.7477L35.4798 21.0023C35.0015 20.7347 34.6381 20.373 34.373 19.905L32.6327 20.8905ZM34.5032 22.7477C35.3103 23.1993 36.222 23.4091 37.2074 23.4091V21.4091C36.511 21.4091 35.9454 21.2629 35.4798 21.0023L34.5032 22.7477ZM37.2074 23.4091C38.1925 23.4091 39.1026 23.1994 39.9047 22.7452L38.9192 21.0048C38.4637 21.2628 37.9041 21.4091 37.2074 21.4091V23.4091ZM39.9002 22.7477C40.6947 22.3032 41.3237 21.68 41.7707 20.8905L40.0304 19.905C39.7653 20.373 39.4019 20.7347 38.9236 21.0023L39.9002 22.7477ZM41.7707 20.8905C42.2211 20.0952 42.4347 19.2061 42.4347 18.25H40.4347C40.4347 18.9 40.2922 19.4427 40.0304 19.905L41.7707 20.8905ZM42.4347 18.25V3.72727H40.4347V18.25H42.4347ZM50.5739 27H49.5739V28H50.5739V27ZM50.5739 3.72727V2.72727H49.5739V3.72727H50.5739ZM66.8011 3.72727H67.8011V2.72727H66.8011V3.72727ZM66.8011 8.29545V9.29545H67.8011V8.29545H66.8011ZM56.1989 8.29545V7.29545H55.1989V8.29545H56.1989ZM56.1989 13.0682H55.1989V14.0682H56.1989V13.0682ZM65.9716 13.0682H66.9716V12.0682H65.9716V13.0682ZM65.9716 17.6477V18.6477H66.9716V17.6477H65.9716ZM56.1989 17.6477V16.6477H55.1989V17.6477H56.1989ZM56.1989 22.4318H55.1989V23.4318H56.1989V22.4318ZM66.8011 22.4318H67.8011V21.4318H66.8011V22.4318ZM66.8011 27V28H67.8011V27H66.8011ZM51.5739 27V3.72727H49.5739V27H51.5739ZM50.5739 4.72727H66.8011V2.72727H50.5739V4.72727ZM65.8011 3.72727V8.29545H67.8011V3.72727H65.8011ZM66.8011 7.29545H56.1989V9.29545H66.8011V7.29545ZM55.1989 8.29545V13.0682H57.1989V8.29545H55.1989ZM56.1989 14.0682H65.9716V12.0682H56.1989V14.0682ZM64.9716 13.0682V17.6477H66.9716V13.0682H64.9716ZM65.9716 16.6477H56.1989V18.6477H65.9716V16.6477ZM55.1989 17.6477V22.4318H57.1989V17.6477H55.1989ZM56.1989 23.4318H66.8011V21.4318H56.1989V23.4318ZM65.8011 22.4318V27H67.8011V22.4318H65.8011ZM66.8011 26H50.5739V28H66.8011V26ZM70.3239 27H69.3239V28H70.3239V27ZM70.3239 3.72727V2.72727H69.3239V3.72727H70.3239ZM84.4034 4.46591L84.0167 5.3881L84.0188 5.38898L84.4034 4.46591ZM87.0625 6.53409L86.2304 7.0888L86.2337 7.09368L87.0625 6.53409ZM87.4034 11.9886L88.2839 12.4627L88.286 12.4587L87.4034 11.9886ZM85.8693 13.7045L85.2971 12.8844V12.8844L85.8693 13.7045ZM83.608 14.6591L83.4002 13.6809L82.608 13.8492V14.6591H83.608ZM83.608 14.8864H82.608V15.8391L83.5596 15.8852L83.608 14.8864ZM86.2102 15.6477L85.7079 16.5124L85.7114 16.5145L86.2102 15.6477ZM88.142 17.5795L87.2797 18.0859L87.2818 18.0893L88.142 17.5795ZM87.9148 23.8409L88.7528 24.3866L88.7547 24.3836L87.9148 23.8409ZM85.1534 26.1591L85.5754 27.0657L85.58 27.0635L85.1534 26.1591ZM75.9489 22.4659H74.9489V23.4659H75.9489V22.4659ZM82.1193 21.7727L81.4983 20.9889L81.4934 20.9929L82.1193 21.7727ZM82.5739 18.2955L81.7308 18.8333L81.7351 18.8399L82.5739 18.2955ZM81.3807 17.2841L80.9548 18.189L80.9659 18.194L81.3807 17.2841ZM75.9489 16.9205V15.9205H74.9489V16.9205H75.9489ZM75.9489 13.2955H74.9489V14.2955H75.9489V13.2955ZM81.8125 12.1023L80.9955 11.5255L80.988 11.5364L81.8125 12.1023ZM81.392 8.86364L82.0206 8.0859V8.08589L81.392 8.86364ZM75.9489 8.19318V7.19318H74.9489V8.19318H75.9489ZM71.3239 27V3.72727H69.3239V27H71.3239ZM70.3239 4.72727H80.0284V2.72727H70.3239V4.72727ZM80.0284 4.72727C81.6839 4.72727 83.0011 4.96221 84.0167 5.3881L84.7901 3.54371C83.4572 2.98476 81.8578 2.72727 80.0284 2.72727V4.72727ZM84.0188 5.38898C85.0557 5.82102 85.7695 6.39738 86.2305 7.08879L87.8945 5.97939C87.1737 4.89807 86.1148 4.09564 84.788 3.54283L84.0188 5.38898ZM86.2337 7.09368C86.7105 7.79974 86.9602 8.62746 86.9602 9.61364H88.9602C88.9602 8.26648 88.6115 7.04117 87.8913 5.9745L86.2337 7.09368ZM86.9602 9.61364C86.9602 10.3564 86.8059 10.9833 86.5208 11.5185L88.286 12.4587C88.7433 11.6001 88.9602 10.6436 88.9602 9.61364H86.9602ZM86.5229 11.5145C86.2271 12.064 85.8222 12.5181 85.2971 12.8844L86.4415 14.5247C87.2195 13.9819 87.8373 13.2921 88.2839 12.4627L86.5229 11.5145ZM85.2971 12.8844C84.766 13.255 84.1388 13.524 83.4002 13.6809L83.8157 15.6373C84.7892 15.4305 85.6696 15.0632 86.4415 14.5247L85.2971 12.8844ZM82.608 14.6591V14.8864H84.608V14.6591H82.608ZM83.5596 15.8852C84.3428 15.9231 85.054 16.1325 85.7079 16.5124L86.7126 14.7831C85.7755 14.2387 84.7519 13.9405 83.6563 13.8875L83.5596 15.8852ZM85.7114 16.5145C86.3589 16.887 86.8796 17.4045 87.2797 18.0859L89.0044 17.0732C88.4347 16.1031 87.6676 15.3327 86.709 14.781L85.7114 16.5145ZM87.2818 18.0893C87.6599 18.7275 87.8693 19.5144 87.8693 20.4886H89.8693C89.8693 19.2204 89.5938 18.0679 89.0023 17.0697L87.2818 18.0893ZM87.8693 20.4886C87.8693 21.5594 87.5997 22.4859 87.0749 23.2982L88.7547 24.3836C89.5025 23.2262 89.8693 21.9179 89.8693 20.4886H87.8693ZM87.0768 23.2952C86.5554 24.096 85.7879 24.7541 84.7268 25.2547L85.58 27.0635C86.928 26.4277 88.0014 25.5404 88.7528 24.3866L87.0768 23.2952ZM84.7315 25.2525C83.692 25.7363 82.3822 26 80.767 26V28C82.5913 28 84.2058 27.7031 85.5754 27.0657L84.7315 25.2525ZM80.767 26H70.3239V28H80.767V26ZM75.9489 23.4659H79.4261V21.4659H75.9489V23.4659ZM79.4261 23.4659C80.7368 23.4659 81.9087 23.2241 82.7453 22.5526L81.4934 20.9929C81.1784 21.2456 80.5549 21.4659 79.4261 21.4659V23.4659ZM82.7403 22.5566C83.5914 21.8823 83.9943 20.934 83.9943 19.8409H81.9943C81.9943 20.3994 81.8139 20.7389 81.4984 20.9889L82.7403 22.5566ZM83.9943 19.8409C83.9943 19.0813 83.8144 18.3699 83.4126 17.751L81.7351 18.8399C81.894 19.0847 81.9943 19.4036 81.9943 19.8409H83.9943ZM83.4169 17.7576C83.0238 17.1414 82.4705 16.6819 81.7955 16.3742L80.9659 18.194C81.3211 18.356 81.5633 18.5707 81.7308 18.8333L83.4169 17.7576ZM81.8065 16.3793C81.1278 16.0599 80.3576 15.9205 79.5284 15.9205V17.9205C80.1386 17.9205 80.6033 18.0234 80.9549 18.1889L81.8065 16.3793ZM79.5284 15.9205H75.9489V17.9205H79.5284V15.9205ZM74.9489 16.9205V22.4659H76.9489V16.9205H74.9489ZM75.9489 14.2955H79.0625V12.2955H75.9489V14.2955ZM79.0625 14.2955C79.7873 14.2955 80.4705 14.1745 81.0928 13.9078L80.3049 12.0695C79.9726 12.2119 79.5649 12.2955 79.0625 12.2955V14.2955ZM81.0928 13.9078C81.7247 13.637 82.2533 13.2272 82.637 12.6681L80.988 11.5364C80.8414 11.75 80.6276 11.9312 80.3049 12.0695L81.0928 13.9078ZM82.6295 12.679C83.0389 12.099 83.2216 11.4238 83.2216 10.7045H81.2216C81.2216 11.0762 81.1316 11.3328 80.9955 11.5256L82.6295 12.679ZM83.2216 10.7045C83.2216 9.65571 82.8334 8.74283 82.0206 8.0859L80.7635 9.64138C81.0567 9.87839 81.2216 10.1928 81.2216 10.7045H83.2216ZM82.0206 8.08589C81.2396 7.45469 80.2477 7.19318 79.1534 7.19318V9.19318C79.9379 9.19318 80.4384 9.37865 80.7635 9.64138L82.0206 8.08589ZM79.1534 7.19318H75.9489V9.19318H79.1534V7.19318ZM74.9489 8.19318V13.2955H76.9489V8.19318H74.9489ZM91.5739 27H90.5739V28H91.5739V27ZM91.5739 3.72727V2.72727H90.5739V3.72727H91.5739ZM105.699 4.67045L105.254 5.56597L105.26 5.56912L105.699 4.67045ZM108.642 7.35227L107.781 7.861L107.783 7.86346L108.642 7.35227ZM108.619 15.5909L109.466 16.123L109.468 16.1204L108.619 15.5909ZM105.619 18.1591L106.03 19.0709L106.034 19.0689L105.619 18.1591ZM94.9375 19.0341H93.9375V20.0341H94.9375V19.0341ZM94.9375 14.6023V13.6023H93.9375V14.6023H94.9375ZM102.097 14.2727L102.457 15.2055L102.464 15.2029L102.097 14.2727ZM103.403 13.25L104.242 13.795L104.246 13.7887L103.403 13.25ZM103.403 9.69318L102.553 10.2195L102.557 10.2256L103.403 9.69318ZM102.097 8.625L101.709 9.54669L101.719 9.55093L102.097 8.625ZM97.1989 8.26136V7.26136H96.1989V8.26136H97.1989ZM97.1989 27V28H98.1989V27H97.1989ZM104.676 16.3636L105.554 15.8852L105.27 15.3636H104.676V16.3636ZM110.472 27V28H112.155L111.35 26.5215L110.472 27ZM104.335 27L103.453 27.4712L103.736 28H104.335V27ZM98.6534 16.3636V15.3636H96.9855L97.7714 16.8348L98.6534 16.3636ZM92.5739 27V3.72727H90.5739V27H92.5739ZM91.5739 4.72727H101.188V2.72727H91.5739V4.72727ZM101.188 4.72727C102.811 4.72727 104.155 5.02006 105.254 5.56595L106.144 3.77496C104.712 3.06327 103.049 2.72727 101.188 2.72727V4.72727ZM105.26 5.56912C106.365 6.10856 107.196 6.87068 107.781 7.861L109.503 6.84354C108.709 5.50053 107.578 4.47477 106.137 3.77179L105.26 5.56912ZM107.783 7.86346C108.365 8.84209 108.676 10.0337 108.676 11.4773H110.676C110.676 9.73904 110.298 8.18064 109.502 6.84108L107.783 7.86346ZM108.676 11.4773C108.676 12.9437 108.357 14.1223 107.771 15.0614L109.468 16.1204C110.291 14.802 110.676 13.2381 110.676 11.4773H108.676ZM107.773 15.0589C107.18 16.0021 106.336 16.733 105.204 17.2493L106.034 19.0689C107.493 18.4033 108.65 17.4221 109.466 16.123L107.773 15.0589ZM105.209 17.2473C104.07 17.76 102.682 18.0341 101.017 18.0341V20.0341C102.897 20.0341 104.578 19.7249 106.03 19.0709L105.209 17.2473ZM101.017 18.0341H94.9375V20.0341H101.017V18.0341ZM95.9375 19.0341V14.6023H93.9375V19.0341H95.9375ZM94.9375 15.6023H99.9716V13.6023H94.9375V15.6023ZM99.9716 15.6023C100.898 15.6023 101.738 15.4834 102.457 15.2054L101.736 13.34C101.318 13.5015 100.742 13.6023 99.9716 13.6023V15.6023ZM102.464 15.2029C103.204 14.9105 103.818 14.4478 104.242 13.795L102.565 12.705C102.398 12.9613 102.14 13.1804 101.729 13.3426L102.464 15.2029ZM104.246 13.7887C104.672 13.1227 104.847 12.3294 104.847 11.4773H102.847C102.847 12.0645 102.726 12.4531 102.561 12.7113L104.246 13.7887ZM104.847 11.4773C104.847 10.6242 104.671 9.83084 104.25 9.16073L102.557 10.2256C102.726 10.4949 102.847 10.8909 102.847 11.4773H104.847ZM104.254 9.16683C103.835 8.49042 103.224 8.00475 102.474 7.69907L101.719 9.55093C102.121 9.71495 102.381 9.9414 102.553 10.2195L104.254 9.16683ZM102.485 7.70336C101.751 7.39466 100.902 7.26136 99.9716 7.26136V9.26136C100.723 9.26136 101.29 9.37049 101.709 9.54664L102.485 7.70336ZM99.9716 7.26136H97.1989V9.26136H99.9716V7.26136ZM96.1989 8.26136V27H98.1989V8.26136H96.1989ZM97.1989 26H91.5739V28H97.1989V26ZM103.798 16.8421L109.593 27.4785L111.35 26.5215L105.554 15.8852L103.798 16.8421ZM110.472 26H104.335V28H110.472V26ZM105.217 26.5288L99.5354 15.8925L97.7714 16.8348L103.453 27.4712L105.217 26.5288ZM98.6534 17.3636H104.676V15.3636H98.6534V17.3636ZM117.795 27V28H118.53L118.75 27.299L117.795 27ZM111.75 27L110.802 26.6803L110.357 28H111.75V27ZM119.602 3.72727V2.72727H118.884L118.655 3.40758L119.602 3.72727ZM127.091 3.72727L128.038 3.40758L127.809 2.72727H127.091V3.72727ZM134.943 27V28H136.336L135.891 26.6803L134.943 27ZM128.898 27L127.944 27.2996L128.164 28H128.898V27ZM123.432 9.59091L124.386 9.29136L124.166 8.59091H123.432V9.59091ZM123.25 9.59091V8.59091H122.515L122.296 9.29192L123.25 9.59091ZM116.989 17.8409V16.8409H115.989V17.8409H116.989ZM129.625 17.8409H130.625V16.8409H129.625V17.8409ZM129.625 22.1136V23.1136H130.625V22.1136H129.625ZM116.989 22.1136H115.989V23.1136H116.989V22.1136ZM117.795 26H111.75V28H117.795V26ZM112.698 27.3197L120.55 4.04697L118.655 3.40758L110.802 26.6803L112.698 27.3197ZM119.602 4.72727H127.091V2.72727H119.602V4.72727ZM126.143 4.04697L133.996 27.3197L135.891 26.6803L128.038 3.40758L126.143 4.04697ZM134.943 26H128.898V28H134.943V26ZM129.852 26.7004L124.386 9.29136L122.478 9.89046L127.944 27.2996L129.852 26.7004ZM123.432 8.59091H123.25V10.5909H123.432V8.59091ZM122.296 9.29192L116.841 26.701L118.75 27.299L124.204 9.88989L122.296 9.29192ZM116.989 18.8409H129.625V16.8409H116.989V18.8409ZM128.625 17.8409V22.1136H130.625V17.8409H128.625ZM129.625 21.1136H116.989V23.1136H129.625V21.1136ZM117.989 22.1136V17.8409H115.989V22.1136H117.989ZM41.6122 35.3295L40.6467 35.5901L40.8463 36.3295H41.6122V35.3295ZM41.044 34.0682L40.2146 34.6268L40.22 34.6347L41.044 34.0682ZM38.8736 32.5455L38.5948 33.5058L38.6019 33.5079L38.6091 33.5099L38.8736 32.5455ZM34.3963 33.1591L33.8451 32.3247L33.8416 32.327L34.3963 33.1591ZM32.4986 35.5455L33.417 35.941L33.4181 35.9386L32.4986 35.5455ZM32.4759 43.1477L33.4011 42.7683L32.4759 43.1477ZM34.3509 45.5568L34.9109 44.7283L34.3509 45.5568ZM39.9418 45.8864L40.3657 46.7921L40.3699 46.7901L39.9418 45.8864ZM41.5781 44.4432L40.7197 43.9302L41.5781 44.4432ZM42.1349 42.25L42.2537 41.2571L41.1349 41.1233V42.25H42.1349ZM43.1804 42.375V43.375L43.2991 41.3821L43.1804 42.375ZM37.5213 42.375H36.5213V43.375H37.5213V42.375ZM37.5213 38.2727V37.2727H36.5213V38.2727H37.5213ZM47.5554 38.2727H48.5554V37.2727H47.5554V38.2727ZM46.2259 46.7045L45.3672 46.192L45.3653 46.1952L46.2259 46.7045ZM42.5895 50.125L42.1318 49.2359L42.1301 49.2368L42.5895 50.125ZM31.4304 49.875L31.927 49.007L31.4304 49.875ZM27.4986 45.7614L26.6133 46.2265L26.6142 46.228L27.4986 45.7614ZM26.9418 34.3182L27.8751 34.6772L27.8757 34.6756L26.9418 34.3182ZM29.3168 30.5455L28.607 29.841L28.6044 29.8436L29.3168 30.5455ZM32.8622 28.2045L32.4962 27.2739L32.4944 27.2746L32.8622 28.2045ZM40.9759 27.9886L40.6596 28.9373L40.6615 28.9379L40.9759 27.9886ZM44.0668 29.625L43.4478 30.4104L43.451 30.4129L44.0668 29.625ZM46.2599 32.1364L45.3942 32.6369V32.6369L46.2599 32.1364ZM47.3054 35.3295V36.3295H48.4299L48.2985 35.2127L47.3054 35.3295ZM42.5777 35.069C42.4229 34.4955 42.1894 33.9691 41.8681 33.5017L40.22 34.6347C40.3987 34.8946 40.5439 35.209 40.6467 35.5901L42.5777 35.069ZM41.8735 33.5096C41.5562 33.0385 41.1644 32.6368 40.7016 32.309L39.5456 33.941C39.8101 34.1284 40.0319 34.3554 40.2146 34.6268L41.8735 33.5096ZM40.7016 32.309C40.2344 31.9781 39.7096 31.7378 39.138 31.5811L38.6091 33.5099C38.9769 33.6107 39.2855 33.7568 39.5456 33.941L40.7016 32.309ZM39.1524 31.5851C38.58 31.4189 37.9696 31.3409 37.3281 31.3409V33.3409C37.8079 33.3409 38.2278 33.3993 38.5948 33.5058L39.1524 31.5851ZM37.3281 31.3409C36.0317 31.3409 34.8566 31.6566 33.8451 32.3247L34.9475 33.9935C35.5875 33.5707 36.3669 33.3409 37.3281 33.3409V31.3409ZM33.8416 32.327C32.8377 32.9963 32.0902 33.9568 31.5791 35.1523L33.4181 35.9386C33.8009 35.0432 34.3185 34.4128 34.951 33.9911L33.8416 32.327ZM31.5801 35.1499C31.0653 36.3453 30.8281 37.7493 30.8281 39.3295H32.8281C32.8281 37.9401 33.0379 36.8213 33.417 35.941L31.5801 35.1499ZM30.8281 39.3295C30.8281 40.9136 31.0567 42.3226 31.5506 43.5271L33.4011 42.7683C33.0314 41.8668 32.8281 40.7303 32.8281 39.3295H30.8281ZM31.5506 43.5271C32.0455 44.734 32.7855 45.7058 33.7909 46.3853L34.9109 44.7283C34.2799 44.3018 33.7698 43.6675 33.4011 42.7683L31.5506 43.5271ZM33.7909 46.3853C34.8026 47.0692 35.9988 47.3864 37.3281 47.3864V45.3864C36.3241 45.3864 35.5355 45.1505 34.9109 44.7283L33.7909 46.3853ZM37.3281 47.3864C38.4614 47.3864 39.4864 47.2036 40.3657 46.7921L39.5178 44.9807C38.9729 45.2358 38.2555 45.3864 37.3281 45.3864V47.3864ZM40.3699 46.7901C41.2498 46.3733 41.9536 45.7643 42.4365 44.9561L40.7197 43.9302C40.4602 44.3645 40.0731 44.7176 39.5137 44.9826L40.3699 46.7901ZM42.4365 44.9561C42.9145 44.1562 43.1349 43.2419 43.1349 42.25H41.1349C41.1349 42.9399 40.9841 43.4877 40.7197 43.9302L42.4365 44.9561ZM42.0162 43.2429L43.0617 43.3679L43.2991 41.3821L42.2537 41.2571L42.0162 43.2429ZM43.1804 41.375H37.5213V43.375H43.1804V41.375ZM38.5213 42.375V38.2727H36.5213V42.375H38.5213ZM37.5213 39.2727H47.5554V37.2727H37.5213V39.2727ZM46.5554 38.2727V41.3523H48.5554V38.2727H46.5554ZM46.5554 41.3523C46.5554 43.2922 46.1438 44.8911 45.3672 46.192L47.0845 47.2171C48.0807 45.5483 48.5554 43.579 48.5554 41.3523H46.5554ZM45.3653 46.1952C44.5831 47.5168 43.5112 48.5259 42.1318 49.2359L43.0471 51.0141C44.7587 50.1332 46.111 48.862 47.0864 47.2139L45.3653 46.1952ZM42.1301 49.2368C40.7548 49.9481 39.1477 50.3182 37.2827 50.3182V52.3182C39.4177 52.3182 41.3485 51.8928 43.0489 51.0132L42.1301 49.2368ZM37.2827 50.3182C35.2114 50.3182 33.4367 49.8707 31.927 49.007L30.9338 50.743C32.7877 51.8036 34.9145 52.3182 37.2827 52.3182V50.3182ZM31.927 49.007C30.4165 48.1429 29.2374 46.914 28.383 45.2947L26.6142 46.228C27.6385 48.1693 29.0806 49.6828 30.9338 50.743L31.927 49.007ZM28.3838 45.2962C27.5344 43.6795 27.0895 41.7247 27.0895 39.3977H25.0895C25.0895 41.9798 25.584 44.2674 26.6133 46.2265L28.3838 45.2962ZM27.0895 39.3977C27.0895 37.5867 27.359 36.0189 27.8751 34.6772L26.0084 33.9592C25.3881 35.572 25.0895 37.3905 25.0895 39.3977H27.0895ZM27.8757 34.6756C28.3995 33.3067 29.12 32.1699 30.0291 31.2473L28.6044 29.8436C27.4832 30.9816 26.6204 32.3599 26.0078 33.9608L27.8757 34.6756ZM30.0265 31.2499C30.9527 30.3169 32.0183 29.6137 33.23 29.1345L32.4944 27.2746C31.0243 27.856 29.7263 28.7134 28.607 29.841L30.0265 31.2499ZM33.2282 29.1352C34.452 28.6539 35.7777 28.4091 37.2145 28.4091V26.4091C35.5453 26.4091 33.9694 26.6946 32.4962 27.2739L33.2282 29.1352ZM37.2145 28.4091C38.4666 28.4091 39.6125 28.5883 40.6596 28.9373L41.2921 27.04C40.021 26.6163 38.6594 26.4091 37.2145 26.4091V28.4091ZM40.6615 28.9379C41.7267 29.2907 42.6521 29.7833 43.4478 30.4104L44.6858 28.8396C43.6936 28.0576 42.5584 27.4593 41.2902 27.0393L40.6615 28.9379ZM43.451 30.4129C44.2538 31.0403 44.8991 31.7805 45.3942 32.6369L47.1257 31.6359C46.4995 30.5528 45.6828 29.6188 44.6825 28.8371L43.451 30.4129ZM45.3942 32.6369C45.8838 33.4837 46.1911 34.4167 46.3122 35.4464L48.2985 35.2127C48.147 33.9242 47.7573 32.7284 47.1257 31.6359L45.3942 32.6369ZM47.3054 34.3295H41.6122V36.3295H47.3054V34.3295ZM50.8707 51H49.8707V52H50.8707V51ZM50.8707 27.7273V26.7273H49.8707V27.7273H50.8707ZM67.098 27.7273H68.098V26.7273H67.098V27.7273ZM67.098 32.2955V33.2955H68.098V32.2955H67.098ZM56.4957 32.2955V31.2955H55.4957V32.2955H56.4957ZM56.4957 37.0682H55.4957V38.0682H56.4957V37.0682ZM66.2685 37.0682H67.2685V36.0682H66.2685V37.0682ZM66.2685 41.6477V42.6477H67.2685V41.6477H66.2685ZM56.4957 41.6477V40.6477H55.4957V41.6477H56.4957ZM56.4957 46.4318H55.4957V47.4318H56.4957V46.4318ZM67.098 46.4318H68.098V45.4318H67.098V46.4318ZM67.098 51V52H68.098V51H67.098ZM51.8707 51V27.7273H49.8707V51H51.8707ZM50.8707 28.7273H67.098V26.7273H50.8707V28.7273ZM66.098 27.7273V32.2955H68.098V27.7273H66.098ZM67.098 31.2955H56.4957V33.2955H67.098V31.2955ZM55.4957 32.2955V37.0682H57.4957V32.2955H55.4957ZM56.4957 38.0682H66.2685V36.0682H56.4957V38.0682ZM65.2685 37.0682V41.6477H67.2685V37.0682H65.2685ZM66.2685 40.6477H56.4957V42.6477H66.2685V40.6477ZM55.4957 41.6477V46.4318H57.4957V41.6477H55.4957ZM56.4957 47.4318H67.098V45.4318H56.4957V47.4318ZM66.098 46.4318V51H68.098V46.4318H66.098ZM67.098 50H50.8707V52H67.098V50ZM70.6207 51H69.6207V52H70.6207V51ZM70.6207 27.7273V26.7273H69.6207V27.7273H70.6207ZM76.2457 27.7273H77.2457V26.7273H76.2457V27.7273ZM76.2457 46.4318H75.2457V47.4318H76.2457V46.4318ZM85.9276 46.4318H86.9276V45.4318H85.9276V46.4318ZM85.9276 51V52H86.9276V51H85.9276ZM71.6207 51V27.7273H69.6207V51H71.6207ZM70.6207 28.7273H76.2457V26.7273H70.6207V28.7273ZM75.2457 27.7273V46.4318H77.2457V27.7273H75.2457ZM76.2457 47.4318H85.9276V45.4318H76.2457V47.4318ZM84.9276 46.4318V51H86.9276V46.4318H84.9276ZM85.9276 50H70.6207V52H85.9276V50ZM108.422 45.875L107.547 45.3909L108.422 45.875ZM104.422 49.9318L103.94 49.0554L103.939 49.0564L104.422 49.9318ZM93.1378 49.9205L93.6241 49.0467L93.1378 49.9205ZM89.1491 45.8636L88.2725 46.3448L88.275 46.3493L89.1491 45.8636ZM89.1491 32.8523L88.2741 32.3682L88.2725 32.3711L89.1491 32.8523ZM93.1378 28.7955L93.6211 29.6709L93.1378 28.7955ZM104.422 28.7955L103.939 29.6709L103.94 29.6718L104.422 28.7955ZM108.422 32.8523L107.547 33.3363L108.422 32.8523ZM103.501 35.5227L102.575 35.8988L102.577 35.9045L103.501 35.5227ZM101.661 33.1477L101.1 33.9761L101.104 33.9786L101.661 33.1477ZM95.9105 33.1477L96.467 33.9786L95.9105 33.1477ZM94.0582 35.5227L93.134 35.141L93.1316 35.1467L94.0582 35.5227ZM94.0582 43.2045L93.1316 43.5806L93.134 43.5863L94.0582 43.2045ZM95.9105 45.5795L96.467 44.7487L95.9105 45.5795ZM101.661 45.5795L101.104 44.7487L101.1 44.7512L101.661 45.5795ZM103.501 43.2045L102.577 42.8228L102.575 42.8285L103.501 43.2045ZM108.899 39.3636C108.899 41.7979 108.431 43.7924 107.547 45.3909L109.297 46.3591C110.382 44.397 110.899 42.0506 110.899 39.3636H108.899ZM107.547 45.3909C106.648 47.0163 105.446 48.2277 103.94 49.0554L104.903 50.8082C106.761 49.7874 108.226 48.2943 109.297 46.3591L107.547 45.3909ZM103.939 49.0564C102.425 49.8917 100.715 50.3182 98.7855 50.3182V52.3182C101.022 52.3182 103.07 51.8204 104.905 50.8073L103.939 49.0564ZM98.7855 50.3182C96.8489 50.3182 95.1363 49.8883 93.6241 49.0467L92.6515 50.7942C94.4878 51.8162 96.5403 52.3182 98.7855 52.3182V50.3182ZM93.6241 49.0467C92.1225 48.2109 90.9231 46.9977 90.0233 45.378L88.275 46.3493C89.3449 48.2751 90.8046 49.7664 92.6515 50.7942L93.6241 49.0467ZM90.0258 45.3824C89.1477 43.7828 88.6832 41.7909 88.6832 39.3636H86.6832C86.6832 42.0424 87.1961 44.3838 88.2725 46.3448L90.0258 45.3824ZM88.6832 39.3636C88.6832 36.9282 89.1479 34.9327 90.0258 33.3335L88.2725 32.3711C87.1959 34.3325 86.6832 36.6779 86.6832 39.3636H88.6832ZM90.0242 33.3363C90.924 31.7098 92.1223 30.4983 93.6211 29.6709L92.6545 27.92C90.8048 28.9411 89.344 30.4342 88.2741 32.3682L90.0242 33.3363ZM93.6211 29.6709C95.1338 28.8358 96.8475 28.4091 98.7855 28.4091V26.4091C96.5417 26.4091 94.4903 26.9066 92.6545 27.92L93.6211 29.6709ZM98.7855 28.4091C100.715 28.4091 102.425 28.8355 103.939 29.6709L104.905 27.92C103.07 26.9069 101.022 26.4091 98.7855 26.4091V28.4091ZM103.94 29.6718C105.446 30.4995 106.648 31.7109 107.547 33.3363L109.297 32.3682C108.226 30.433 106.761 28.9399 104.903 27.9191L103.94 29.6718ZM107.547 33.3363C108.431 34.9349 108.899 36.9294 108.899 39.3636H110.899C110.899 36.6767 110.382 34.3302 109.297 32.3682L107.547 33.3363ZM105.149 39.3636C105.149 37.7595 104.921 36.341 104.426 35.141L102.577 35.9045C102.945 36.7953 103.149 37.9375 103.149 39.3636H105.149ZM104.428 35.1467C103.942 33.9478 103.212 32.9836 102.217 32.3169L101.104 33.9786C101.715 34.3876 102.213 35.0067 102.575 35.8987L104.428 35.1467ZM102.221 32.3193C101.234 31.6518 100.072 31.3409 98.7855 31.3409V33.3409C99.7414 33.3409 100.497 33.5679 101.1 33.9761L102.221 32.3193ZM98.7855 31.3409C97.5047 31.3409 96.3457 31.6526 95.354 32.3169L96.467 33.9786C97.0814 33.567 97.839 33.3409 98.7855 33.3409V31.3409ZM95.354 32.3169C94.3602 32.9825 93.6281 33.9446 93.134 35.141L94.9825 35.9045C95.352 35.01 95.8547 34.3887 96.467 33.9786L95.354 32.3169ZM93.1316 35.1467C92.6454 36.3449 92.4219 37.7612 92.4219 39.3636H94.4219C94.4219 37.9358 94.6226 36.7914 94.9848 35.8987L93.1316 35.1467ZM92.4219 39.3636C92.4219 40.9661 92.6454 42.3824 93.1316 43.5806L94.9848 42.8285C94.6226 41.9358 94.4219 40.7915 94.4219 39.3636H92.4219ZM93.134 43.5863C93.6281 44.7827 94.3602 45.7447 95.354 46.4104L96.467 44.7487C95.8547 44.3386 95.352 43.7173 94.9825 42.8228L93.134 43.5863ZM95.354 46.4104C96.3457 47.0746 97.5047 47.3864 98.7855 47.3864V45.3864C97.839 45.3864 97.0814 45.1602 96.467 44.7487L95.354 46.4104ZM98.7855 47.3864C100.072 47.3864 101.234 47.0754 102.221 46.4079L101.1 44.7512C100.497 45.1594 99.7414 45.3864 98.7855 45.3864V47.3864ZM102.217 46.4104C103.212 45.7436 103.942 44.7794 104.428 43.5806L102.575 42.8285C102.213 43.7206 101.715 44.3397 101.104 44.7487L102.217 46.4104ZM104.426 43.5863C104.921 42.3863 105.149 40.9678 105.149 39.3636H103.149C103.149 40.7898 102.945 41.9319 102.577 42.8228L104.426 43.5863Z" fill="black" mask="url(#path-1-outside-1_5_409)"/>
<mask id="path-3-outside-2_5_409" maskUnits="userSpaceOnUse" x="4" y="-1" width="137" height="51" fill="black">
<rect fill="white" x="4" y="-1" width="137" height="51"/>
<path d="M14.9716 15.6364H19.517L21.4489 18.1023L23.983 21.0114L27.8807 25.8182H22.7898L20.0625 22.5568L18.4489 20.2386L14.9716 15.6364ZM28.0398 12.3636C28.0398 14.9242 27.5473 17.0947 26.5625 18.875C25.5777 20.6553 24.2443 22.0076 22.5625 22.9318C20.8883 23.8561 19.0095 24.3182 16.9261 24.3182C14.8352 24.3182 12.9527 23.8523 11.2784 22.9205C9.60417 21.9886 8.27462 20.6364 7.28977 18.8636C6.3125 17.0833 5.82386 14.9167 5.82386 12.3636C5.82386 9.80303 6.3125 7.63258 7.28977 5.85227C8.27462 4.07197 9.60417 2.7197 11.2784 1.79545C12.9527 0.871211 14.8352 0.40909 16.9261 0.40909C19.0095 0.40909 20.8883 0.871211 22.5625 1.79545C24.2443 2.7197 25.5777 4.07197 26.5625 5.85227C27.5473 7.63258 28.0398 9.80303 28.0398 12.3636ZM22.2898 12.3636C22.2898 10.8485 22.0739 9.56818 21.642 8.52273C21.2178 7.47727 20.6042 6.6856 19.8011 6.14773C19.0057 5.60985 18.0473 5.34091 16.9261 5.34091C15.8125 5.34091 14.8542 5.60985 14.0511 6.14773C13.2481 6.6856 12.6307 7.47727 12.1989 8.52273C11.7746 9.56818 11.5625 10.8485 11.5625 12.3636C11.5625 13.8788 11.7746 15.1591 12.1989 16.2045C12.6307 17.25 13.2481 18.0417 14.0511 18.5795C14.8542 19.1174 15.8125 19.3864 16.9261 19.3864C18.0473 19.3864 19.0057 19.1174 19.8011 18.5795C20.6042 18.0417 21.2178 17.25 21.642 16.2045C22.0739 15.1591 22.2898 13.8788 22.2898 12.3636ZM45.4347 0.727272H51.0483V15.7386C51.0483 17.4735 50.6354 18.9848 49.8097 20.2727C48.9839 21.553 47.8324 22.5455 46.3551 23.25C44.8778 23.947 43.1619 24.2955 41.2074 24.2955C39.2301 24.2955 37.5028 23.947 36.0256 23.25C34.5483 22.5455 33.4006 21.553 32.5824 20.2727C31.7642 18.9848 31.3551 17.4735 31.3551 15.7386V0.727272H36.9801V15.25C36.9801 16.053 37.1544 16.7689 37.5028 17.3977C37.8589 18.0265 38.3551 18.5189 38.9915 18.875C39.6278 19.2311 40.3665 19.4091 41.2074 19.4091C42.0483 19.4091 42.7831 19.2311 43.4119 18.875C44.0483 18.5189 44.5445 18.0265 44.9006 17.3977C45.2566 16.7689 45.4347 16.053 45.4347 15.25V0.727272ZM54.5739 24V0.727272H70.8011V5.29545H60.1989V10.0682H69.9716V14.6477H60.1989V19.4318H70.8011V24H54.5739ZM74.3239 24V0.727272H84.0284C85.7708 0.727272 87.2292 0.973484 88.4034 1.46591C89.5852 1.95833 90.4716 2.64773 91.0625 3.53409C91.661 4.42045 91.9602 5.44697 91.9602 6.61364C91.9602 7.5 91.7746 8.29167 91.4034 8.98864C91.0322 9.67803 90.5208 10.25 89.8693 10.7045C89.2178 11.1591 88.464 11.4773 87.608 11.6591V11.8864C88.5473 11.9318 89.4148 12.1856 90.2102 12.6477C91.0133 13.1098 91.6572 13.7538 92.142 14.5795C92.6269 15.3977 92.8693 16.3674 92.8693 17.4886C92.8693 18.7386 92.5511 19.8561 91.9148 20.8409C91.2784 21.8182 90.358 22.5909 89.1534 23.1591C87.9489 23.7197 86.4867 24 84.767 24H74.3239ZM79.9489 19.4659H83.4261C84.6458 19.4659 85.5436 19.2348 86.1193 18.7727C86.7027 18.3106 86.9943 17.6667 86.9943 16.8409C86.9943 16.2424 86.8542 15.7273 86.5739 15.2955C86.2936 14.8561 85.8958 14.5189 85.3807 14.2841C84.8655 14.0417 84.2481 13.9205 83.5284 13.9205H79.9489V19.4659ZM79.9489 10.2955H83.0625C83.6761 10.2955 84.2216 10.1932 84.6989 9.98864C85.1761 9.78409 85.5473 9.48864 85.8125 9.10227C86.0852 8.71591 86.2216 8.25 86.2216 7.70454C86.2216 6.92424 85.9451 6.31061 85.392 5.86364C84.839 5.41667 84.0928 5.19318 83.1534 5.19318H79.9489V10.2955ZM95.5739 24V0.727272H105.188C106.93 0.727272 108.434 1.04167 109.699 1.67045C110.972 2.29167 111.953 3.18561 112.642 4.35227C113.331 5.51136 113.676 6.88636 113.676 8.47727C113.676 10.0909 113.324 11.4621 112.619 12.5909C111.915 13.7121 110.915 14.5682 109.619 15.1591C108.324 15.7424 106.79 16.0341 105.017 16.0341H98.9375V11.6023H103.972C104.82 11.6023 105.528 11.4924 106.097 11.2727C106.672 11.0455 107.108 10.7045 107.403 10.25C107.699 9.78788 107.847 9.19697 107.847 8.47727C107.847 7.75757 107.699 7.16288 107.403 6.69318C107.108 6.21591 106.672 5.85985 106.097 5.625C105.521 5.38258 104.813 5.26136 103.972 5.26136H101.199V24H95.5739ZM108.676 13.3636L114.472 24H108.335L102.653 13.3636H108.676ZM121.795 24H115.75L123.602 0.727272H131.091L138.943 24H132.898L127.432 6.59091H127.25L121.795 24ZM120.989 14.8409H133.625V19.1136H120.989V14.8409ZM45.6122 32.3295C45.4834 31.8523 45.294 31.4318 45.044 31.0682C44.794 30.697 44.4872 30.3826 44.1236 30.125C43.7599 29.8674 43.3433 29.6742 42.8736 29.5455C42.4039 29.4091 41.8887 29.3409 41.3281 29.3409C40.1993 29.3409 39.2221 29.6136 38.3963 30.1591C37.5781 30.7045 36.9455 31.5 36.4986 32.5455C36.0516 33.5833 35.8281 34.8447 35.8281 36.3295C35.8281 37.822 36.044 39.0947 36.4759 40.1477C36.9077 41.2008 37.5327 42.0038 38.3509 42.5568C39.169 43.1098 40.1615 43.3864 41.3281 43.3864C42.3584 43.3864 43.2296 43.2197 43.9418 42.8864C44.6615 42.5455 45.2069 42.0644 45.5781 41.4432C45.9493 40.822 46.1349 40.0909 46.1349 39.25L47.1804 39.375H41.5213V35.2727H51.5554V38.3523C51.5554 40.4356 51.1122 42.2197 50.2259 43.7045C49.3471 45.1894 48.1349 46.3295 46.5895 47.125C45.0516 47.9205 43.2827 48.3182 41.2827 48.3182C39.063 48.3182 37.1122 47.8371 35.4304 46.875C33.7486 45.9129 32.438 44.5417 31.4986 42.7614C30.5592 40.9735 30.0895 38.8523 30.0895 36.3977C30.0895 34.4886 30.3736 32.7955 30.9418 31.3182C31.5099 29.8333 32.3016 28.5758 33.3168 27.5455C34.3395 26.5152 35.5213 25.7348 36.8622 25.2045C38.2107 24.6742 39.6615 24.4091 41.2145 24.4091C42.563 24.4091 43.8168 24.6023 44.9759 24.9886C46.1425 25.375 47.1728 25.9205 48.0668 26.625C48.9683 27.3295 49.6993 28.1667 50.2599 29.1364C50.8205 30.1061 51.169 31.1705 51.3054 32.3295H45.6122ZM54.8707 48V24.7273H71.098V29.2955H60.4957V34.0682H70.2685V38.6477H60.4957V43.4318H71.098V48H54.8707ZM74.6207 48V24.7273H80.2457V43.4318H89.9276V48H74.6207ZM113.899 36.3636C113.899 38.9242 113.407 41.0947 112.422 42.875C111.437 44.6553 110.104 46.0076 108.422 46.9318C106.748 47.8561 104.869 48.3182 102.786 48.3182C100.695 48.3182 98.812 47.8523 97.1378 46.9205C95.4635 45.9886 94.134 44.6364 93.1491 42.8636C92.1719 41.0833 91.6832 38.9167 91.6832 36.3636C91.6832 33.803 92.1719 31.6326 93.1491 29.8523C94.134 28.072 95.4635 26.7197 97.1378 25.7955C98.812 24.8712 100.695 24.4091 102.786 24.4091C104.869 24.4091 106.748 24.8712 108.422 25.7955C110.104 26.7197 111.437 28.072 112.422 29.8523C113.407 31.6326 113.899 33.803 113.899 36.3636ZM108.149 36.3636C108.149 34.8485 107.933 33.5682 107.501 32.5227C107.077 31.4773 106.464 30.6856 105.661 30.1477C104.865 29.6098 103.907 29.3409 102.786 29.3409C101.672 29.3409 100.714 29.6098 99.9105 30.1477C99.1075 30.6856 98.4901 31.4773 98.0582 32.5227C97.634 33.5682 97.4219 34.8485 97.4219 36.3636C97.4219 37.8788 97.634 39.1591 98.0582 40.2045C98.4901 41.25 99.1075 42.0417 99.9105 42.5795C100.714 43.1174 101.672 43.3864 102.786 43.3864C103.907 43.3864 104.865 43.1174 105.661 42.5795C106.464 42.0417 107.077 41.25 107.501 40.2045C107.933 39.1591 108.149 37.8788 108.149 36.3636Z"/>
</mask>
<path d="M14.9716 15.6364H19.517L21.4489 18.1023L23.983 21.0114L27.8807 25.8182H22.7898L20.0625 22.5568L18.4489 20.2386L14.9716 15.6364ZM28.0398 12.3636C28.0398 14.9242 27.5473 17.0947 26.5625 18.875C25.5777 20.6553 24.2443 22.0076 22.5625 22.9318C20.8883 23.8561 19.0095 24.3182 16.9261 24.3182C14.8352 24.3182 12.9527 23.8523 11.2784 22.9205C9.60417 21.9886 8.27462 20.6364 7.28977 18.8636C6.3125 17.0833 5.82386 14.9167 5.82386 12.3636C5.82386 9.80303 6.3125 7.63258 7.28977 5.85227C8.27462 4.07197 9.60417 2.7197 11.2784 1.79545C12.9527 0.871211 14.8352 0.40909 16.9261 0.40909C19.0095 0.40909 20.8883 0.871211 22.5625 1.79545C24.2443 2.7197 25.5777 4.07197 26.5625 5.85227C27.5473 7.63258 28.0398 9.80303 28.0398 12.3636ZM22.2898 12.3636C22.2898 10.8485 22.0739 9.56818 21.642 8.52273C21.2178 7.47727 20.6042 6.6856 19.8011 6.14773C19.0057 5.60985 18.0473 5.34091 16.9261 5.34091C15.8125 5.34091 14.8542 5.60985 14.0511 6.14773C13.2481 6.6856 12.6307 7.47727 12.1989 8.52273C11.7746 9.56818 11.5625 10.8485 11.5625 12.3636C11.5625 13.8788 11.7746 15.1591 12.1989 16.2045C12.6307 17.25 13.2481 18.0417 14.0511 18.5795C14.8542 19.1174 15.8125 19.3864 16.9261 19.3864C18.0473 19.3864 19.0057 19.1174 19.8011 18.5795C20.6042 18.0417 21.2178 17.25 21.642 16.2045C22.0739 15.1591 22.2898 13.8788 22.2898 12.3636ZM45.4347 0.727272H51.0483V15.7386C51.0483 17.4735 50.6354 18.9848 49.8097 20.2727C48.9839 21.553 47.8324 22.5455 46.3551 23.25C44.8778 23.947 43.1619 24.2955 41.2074 24.2955C39.2301 24.2955 37.5028 23.947 36.0256 23.25C34.5483 22.5455 33.4006 21.553 32.5824 20.2727C31.7642 18.9848 31.3551 17.4735 31.3551 15.7386V0.727272H36.9801V15.25C36.9801 16.053 37.1544 16.7689 37.5028 17.3977C37.8589 18.0265 38.3551 18.5189 38.9915 18.875C39.6278 19.2311 40.3665 19.4091 41.2074 19.4091C42.0483 19.4091 42.7831 19.2311 43.4119 18.875C44.0483 18.5189 44.5445 18.0265 44.9006 17.3977C45.2566 16.7689 45.4347 16.053 45.4347 15.25V0.727272ZM54.5739 24V0.727272H70.8011V5.29545H60.1989V10.0682H69.9716V14.6477H60.1989V19.4318H70.8011V24H54.5739ZM74.3239 24V0.727272H84.0284C85.7708 0.727272 87.2292 0.973484 88.4034 1.46591C89.5852 1.95833 90.4716 2.64773 91.0625 3.53409C91.661 4.42045 91.9602 5.44697 91.9602 6.61364C91.9602 7.5 91.7746 8.29167 91.4034 8.98864C91.0322 9.67803 90.5208 10.25 89.8693 10.7045C89.2178 11.1591 88.464 11.4773 87.608 11.6591V11.8864C88.5473 11.9318 89.4148 12.1856 90.2102 12.6477C91.0133 13.1098 91.6572 13.7538 92.142 14.5795C92.6269 15.3977 92.8693 16.3674 92.8693 17.4886C92.8693 18.7386 92.5511 19.8561 91.9148 20.8409C91.2784 21.8182 90.358 22.5909 89.1534 23.1591C87.9489 23.7197 86.4867 24 84.767 24H74.3239ZM79.9489 19.4659H83.4261C84.6458 19.4659 85.5436 19.2348 86.1193 18.7727C86.7027 18.3106 86.9943 17.6667 86.9943 16.8409C86.9943 16.2424 86.8542 15.7273 86.5739 15.2955C86.2936 14.8561 85.8958 14.5189 85.3807 14.2841C84.8655 14.0417 84.2481 13.9205 83.5284 13.9205H79.9489V19.4659ZM79.9489 10.2955H83.0625C83.6761 10.2955 84.2216 10.1932 84.6989 9.98864C85.1761 9.78409 85.5473 9.48864 85.8125 9.10227C86.0852 8.71591 86.2216 8.25 86.2216 7.70454C86.2216 6.92424 85.9451 6.31061 85.392 5.86364C84.839 5.41667 84.0928 5.19318 83.1534 5.19318H79.9489V10.2955ZM95.5739 24V0.727272H105.188C106.93 0.727272 108.434 1.04167 109.699 1.67045C110.972 2.29167 111.953 3.18561 112.642 4.35227C113.331 5.51136 113.676 6.88636 113.676 8.47727C113.676 10.0909 113.324 11.4621 112.619 12.5909C111.915 13.7121 110.915 14.5682 109.619 15.1591C108.324 15.7424 106.79 16.0341 105.017 16.0341H98.9375V11.6023H103.972C104.82 11.6023 105.528 11.4924 106.097 11.2727C106.672 11.0455 107.108 10.7045 107.403 10.25C107.699 9.78788 107.847 9.19697 107.847 8.47727C107.847 7.75757 107.699 7.16288 107.403 6.69318C107.108 6.21591 106.672 5.85985 106.097 5.625C105.521 5.38258 104.813 5.26136 103.972 5.26136H101.199V24H95.5739ZM108.676 13.3636L114.472 24H108.335L102.653 13.3636H108.676ZM121.795 24H115.75L123.602 0.727272H131.091L138.943 24H132.898L127.432 6.59091H127.25L121.795 24ZM120.989 14.8409H133.625V19.1136H120.989V14.8409ZM45.6122 32.3295C45.4834 31.8523 45.294 31.4318 45.044 31.0682C44.794 30.697 44.4872 30.3826 44.1236 30.125C43.7599 29.8674 43.3433 29.6742 42.8736 29.5455C42.4039 29.4091 41.8887 29.3409 41.3281 29.3409C40.1993 29.3409 39.2221 29.6136 38.3963 30.1591C37.5781 30.7045 36.9455 31.5 36.4986 32.5455C36.0516 33.5833 35.8281 34.8447 35.8281 36.3295C35.8281 37.822 36.044 39.0947 36.4759 40.1477C36.9077 41.2008 37.5327 42.0038 38.3509 42.5568C39.169 43.1098 40.1615 43.3864 41.3281 43.3864C42.3584 43.3864 43.2296 43.2197 43.9418 42.8864C44.6615 42.5455 45.2069 42.0644 45.5781 41.4432C45.9493 40.822 46.1349 40.0909 46.1349 39.25L47.1804 39.375H41.5213V35.2727H51.5554V38.3523C51.5554 40.4356 51.1122 42.2197 50.2259 43.7045C49.3471 45.1894 48.1349 46.3295 46.5895 47.125C45.0516 47.9205 43.2827 48.3182 41.2827 48.3182C39.063 48.3182 37.1122 47.8371 35.4304 46.875C33.7486 45.9129 32.438 44.5417 31.4986 42.7614C30.5592 40.9735 30.0895 38.8523 30.0895 36.3977C30.0895 34.4886 30.3736 32.7955 30.9418 31.3182C31.5099 29.8333 32.3016 28.5758 33.3168 27.5455C34.3395 26.5152 35.5213 25.7348 36.8622 25.2045C38.2107 24.6742 39.6615 24.4091 41.2145 24.4091C42.563 24.4091 43.8168 24.6023 44.9759 24.9886C46.1425 25.375 47.1728 25.9205 48.0668 26.625C48.9683 27.3295 49.6993 28.1667 50.2599 29.1364C50.8205 30.1061 51.169 31.1705 51.3054 32.3295H45.6122ZM54.8707 48V24.7273H71.098V29.2955H60.4957V34.0682H70.2685V38.6477H60.4957V43.4318H71.098V48H54.8707ZM74.6207 48V24.7273H80.2457V43.4318H89.9276V48H74.6207ZM113.899 36.3636C113.899 38.9242 113.407 41.0947 112.422 42.875C111.437 44.6553 110.104 46.0076 108.422 46.9318C106.748 47.8561 104.869 48.3182 102.786 48.3182C100.695 48.3182 98.812 47.8523 97.1378 46.9205C95.4635 45.9886 94.134 44.6364 93.1491 42.8636C92.1719 41.0833 91.6832 38.9167 91.6832 36.3636C91.6832 33.803 92.1719 31.6326 93.1491 29.8523C94.134 28.072 95.4635 26.7197 97.1378 25.7955C98.812 24.8712 100.695 24.4091 102.786 24.4091C104.869 24.4091 106.748 24.8712 108.422 25.7955C110.104 26.7197 111.437 28.072 112.422 29.8523C113.407 31.6326 113.899 33.803 113.899 36.3636ZM108.149 36.3636C108.149 34.8485 107.933 33.5682 107.501 32.5227C107.077 31.4773 106.464 30.6856 105.661 30.1477C104.865 29.6098 103.907 29.3409 102.786 29.3409C101.672 29.3409 100.714 29.6098 99.9105 30.1477C99.1075 30.6856 98.4901 31.4773 98.0582 32.5227C97.634 33.5682 97.4219 34.8485 97.4219 36.3636C97.4219 37.8788 97.634 39.1591 98.0582 40.2045C98.4901 41.25 99.1075 42.0417 99.9105 42.5795C100.714 43.1174 101.672 43.3864 102.786 43.3864C103.907 43.3864 104.865 43.1174 105.661 42.5795C106.464 42.0417 107.077 41.25 107.501 40.2045C107.933 39.1591 108.149 37.8788 108.149 36.3636Z" fill="#FFBB38"/>
<path d="M14.9716 15.6364V14.6364H12.9627L14.1737 16.2392L14.9716 15.6364ZM19.517 15.6364L20.3042 15.0197L20.004 14.6364H19.517V15.6364ZM21.4489 18.1023L20.6617 18.719L20.6777 18.7395L20.6948 18.7591L21.4489 18.1023ZM23.983 21.0114L24.7597 20.3815L24.7486 20.3678L24.737 20.3545L23.983 21.0114ZM27.8807 25.8182V26.8182H29.979L28.6574 25.1884L27.8807 25.8182ZM22.7898 25.8182L22.0226 26.4597L22.3224 26.8182H22.7898V25.8182ZM20.0625 22.5568L19.2418 23.1281L19.267 23.1644L19.2954 23.1983L20.0625 22.5568ZM18.4489 20.2386L19.2696 19.6673L19.2585 19.6513L19.2467 19.6358L18.4489 20.2386ZM26.5625 18.875L25.6875 18.3909V18.3909L26.5625 18.875ZM22.5625 22.9318L22.0809 22.0554L22.0792 22.0564L22.5625 22.9318ZM11.2784 22.9205L11.7647 22.0467L11.2784 22.9205ZM7.28977 18.8636L6.41315 19.3448L6.41562 19.3493L7.28977 18.8636ZM7.28977 5.85227L6.41473 5.36821L6.41316 5.37107L7.28977 5.85227ZM11.2784 1.79545L11.7617 2.67092L11.2784 1.79545ZM22.5625 1.79545L22.0792 2.67092L22.0809 2.67184L22.5625 1.79545ZM26.5625 5.85227L25.6875 6.33633V6.33633L26.5625 5.85227ZM21.642 8.52273L20.7154 8.89875L20.7178 8.90449L21.642 8.52273ZM19.8011 6.14773L19.241 6.97613L19.2446 6.97857L19.8011 6.14773ZM14.0511 6.14773L14.6076 6.97857H14.6076L14.0511 6.14773ZM12.1989 8.52273L11.2746 8.14096L11.2723 8.14671L12.1989 8.52273ZM12.1989 16.2045L11.2722 16.5806L11.2746 16.5863L12.1989 16.2045ZM14.0511 18.5795L14.6076 17.7487L14.0511 18.5795ZM19.8011 18.5795L19.2446 17.7487L19.241 17.7512L19.8011 18.5795ZM21.642 16.2045L20.7178 15.8228L20.7154 15.8285L21.642 16.2045ZM14.9716 16.6364H19.517V14.6364H14.9716V16.6364ZM18.7298 16.2531L20.6617 18.719L22.2361 17.4856L20.3042 15.0197L18.7298 16.2531ZM20.6948 18.7591L23.2289 21.6682L24.737 20.3545L22.2029 17.4454L20.6948 18.7591ZM23.2062 21.6412L27.104 26.448L28.6574 25.1884L24.7597 20.3815L23.2062 21.6412ZM27.8807 24.8182H22.7898V26.8182H27.8807V24.8182ZM23.5569 25.1767L20.8296 21.9153L19.2954 23.1983L22.0226 26.4597L23.5569 25.1767ZM20.8832 21.9855L19.2696 19.6673L17.6281 20.8099L19.2418 23.1281L20.8832 21.9855ZM19.2467 19.6358L15.7695 15.0335L14.1737 16.2392L17.651 20.8415L19.2467 19.6358ZM27.0398 12.3636C27.0398 14.7979 26.5718 16.7924 25.6875 18.3909L27.4375 19.3591C28.5229 17.397 29.0398 15.0506 29.0398 12.3636H27.0398ZM25.6875 18.3909C24.7883 20.0163 23.587 21.2277 22.0809 22.0554L23.0441 23.8082C24.9016 22.7874 26.367 21.2943 27.4375 19.3591L25.6875 18.3909ZM22.0792 22.0564C20.566 22.8917 18.8559 23.3182 16.9261 23.3182V25.3182C19.163 25.3182 21.2106 24.8204 23.0458 23.8073L22.0792 22.0564ZM16.9261 23.3182C14.9895 23.3182 13.2769 22.8883 11.7647 22.0467L10.7921 23.7942C12.6284 24.8162 14.681 25.3182 16.9261 25.3182V23.3182ZM11.7647 22.0467C10.2631 21.2109 9.06374 19.9977 8.16393 18.378L6.41562 19.3493C7.4855 21.2751 8.94525 22.7664 10.7921 23.7942L11.7647 22.0467ZM8.16638 18.3824C7.2883 16.7828 6.82386 14.7909 6.82386 12.3636H4.82386C4.82386 15.0424 5.3367 17.3838 6.41316 19.3448L8.16638 18.3824ZM6.82386 12.3636C6.82386 9.92821 7.28852 7.93269 8.16638 6.33347L6.41316 5.37107C5.33648 7.33246 4.82386 9.67785 4.82386 12.3636H6.82386ZM8.16481 6.33633C9.0646 4.70978 10.2629 3.49828 11.7617 2.67092L10.7951 0.919992C8.94539 1.94111 7.48464 3.43416 6.41474 5.36821L8.16481 6.33633ZM11.7617 2.67092C13.2744 1.83584 14.9881 1.40909 16.9261 1.40909V-0.59091C14.6824 -0.59091 12.6309 -0.0934164 10.7951 0.919992L11.7617 2.67092ZM16.9261 1.40909C18.8559 1.40909 20.566 1.83554 22.0792 2.67092L23.0458 0.919992C21.2106 -0.0931194 19.163 -0.59091 16.9261 -0.59091V1.40909ZM22.0809 2.67184C23.587 3.49953 24.7883 4.71093 25.6875 6.33633L27.4375 5.36821C26.367 3.43301 24.9016 1.93987 23.0441 0.919071L22.0809 2.67184ZM25.6875 6.33633C26.5718 7.93491 27.0398 9.92935 27.0398 12.3636H29.0398C29.0398 9.67671 28.5229 7.33024 27.4375 5.36821L25.6875 6.33633ZM23.2898 12.3636C23.2898 10.7595 23.062 9.34102 22.5663 8.14097L20.7178 8.90449C21.0857 9.79534 21.2898 10.9375 21.2898 12.3636H23.2898ZM22.5687 8.14671C22.0822 6.94784 21.3531 5.98364 20.3576 5.31688L19.2446 6.97857C19.8552 7.38757 20.3534 8.00671 20.7154 8.89874L22.5687 8.14671ZM20.3613 5.31933C19.3741 4.65183 18.2127 4.34091 16.9261 4.34091V6.34091C17.882 6.34091 18.6372 6.56787 19.241 6.97612L20.3613 5.31933ZM16.9261 4.34091C15.6453 4.34091 14.4863 4.65265 13.4946 5.31688L14.6076 6.97857C15.222 6.56705 15.9797 6.34091 16.9261 6.34091V4.34091ZM13.4946 5.31688C12.5008 5.98253 11.7688 6.94459 11.2746 8.14097L13.1231 8.90449C13.4926 8.00995 13.9954 7.38868 14.6076 6.97857L13.4946 5.31688ZM11.2723 8.14671C10.786 9.34492 10.5625 10.7612 10.5625 12.3636H12.5625C12.5625 10.9358 12.7632 9.79145 13.1255 8.89874L11.2723 8.14671ZM10.5625 12.3636C10.5625 13.9661 10.786 15.3824 11.2723 16.5806L13.1255 15.8285C12.7632 14.9358 12.5625 13.7915 12.5625 12.3636H10.5625ZM11.2746 16.5863C11.7688 17.7827 12.5008 18.7447 13.4946 19.4104L14.6076 17.7487C13.9954 17.3386 13.4926 16.7173 13.1231 15.8228L11.2746 16.5863ZM13.4946 19.4104C14.4863 20.0746 15.6453 20.3864 16.9261 20.3864V18.3864C15.9797 18.3864 15.222 18.1602 14.6076 17.7487L13.4946 19.4104ZM16.9261 20.3864C18.2127 20.3864 19.3741 20.0754 20.3613 19.4079L19.241 17.7512C18.6372 18.1594 17.882 18.3864 16.9261 18.3864V20.3864ZM20.3576 19.4104C21.3531 18.7436 22.0822 17.7794 22.5687 16.5806L20.7154 15.8285C20.3534 16.7206 19.8552 17.3397 19.2446 17.7487L20.3576 19.4104ZM22.5663 16.5863C23.062 15.3863 23.2898 13.9678 23.2898 12.3636H21.2898C21.2898 13.7898 21.0857 14.9319 20.7178 15.8228L22.5663 16.5863ZM45.4347 0.727272V-0.272728H44.4347V0.727272H45.4347ZM51.0483 0.727272H52.0483V-0.272728H51.0483V0.727272ZM49.8097 20.2727L50.65 20.8147L50.6515 20.8125L49.8097 20.2727ZM46.3551 23.25L46.7818 24.1544L46.7856 24.1526L46.3551 23.25ZM36.0256 23.25L35.5951 24.1526L35.5989 24.1544L36.0256 23.25ZM32.5824 20.2727L31.7383 20.809L31.7398 20.8112L32.5824 20.2727ZM31.3551 0.727272V-0.272728H30.3551V0.727272H31.3551ZM36.9801 0.727272H37.9801V-0.272728H36.9801V0.727272ZM37.5028 17.3977L36.6282 17.8825L36.6327 17.8905L37.5028 17.3977ZM38.9915 18.875L39.4798 18.0023H39.4798L38.9915 18.875ZM43.4119 18.875L42.9236 18.0023L42.9192 18.0048L43.4119 18.875ZM45.4347 1.72727H51.0483V-0.272728H45.4347V1.72727ZM50.0483 0.727272V15.7386H52.0483V0.727272H50.0483ZM50.0483 15.7386C50.0483 17.3085 49.677 18.627 48.9678 19.733L50.6515 20.8125C51.5939 19.3427 52.0483 17.6385 52.0483 15.7386H50.0483ZM48.9693 19.7307C48.2516 20.8435 47.2474 21.7165 45.9246 22.3474L46.7856 24.1526C48.4174 23.3744 49.7162 22.2626 50.65 20.8147L48.9693 19.7307ZM45.9284 22.3456C44.6083 22.9685 43.043 23.2955 41.2074 23.2955V25.2955C43.2809 25.2955 45.1474 24.9255 46.7818 24.1544L45.9284 22.3456ZM41.2074 23.2955C39.3471 23.2955 37.771 22.9678 36.4523 22.3456L35.5989 24.1544C37.2347 24.9262 39.1131 25.2955 41.2074 25.2955V23.2955ZM36.456 22.3474C35.1339 21.7169 34.1348 20.8448 33.425 19.7342L31.7398 20.8112C32.6664 22.2612 33.9627 23.3741 35.5951 24.1526L36.456 22.3474ZM33.4265 19.7365C32.7236 18.6301 32.3551 17.3103 32.3551 15.7386H30.3551C30.3551 17.6367 30.8049 19.3396 31.7383 20.809L33.4265 19.7365ZM32.3551 15.7386V0.727272H30.3551V15.7386H32.3551ZM31.3551 1.72727H36.9801V-0.272728H31.3551V1.72727ZM35.9801 0.727272V15.25H37.9801V0.727272H35.9801ZM35.9801 15.25C35.9801 16.2024 36.1882 17.0886 36.6282 17.8825L38.3775 16.913C38.1205 16.4493 37.9801 15.9037 37.9801 15.25H35.9801ZM36.6327 17.8905C37.0797 18.68 37.7087 19.3032 38.5032 19.7477L39.4798 18.0023C39.0015 17.7347 38.6381 17.373 38.373 16.905L36.6327 17.8905ZM38.5032 19.7477C39.3103 20.1993 40.222 20.4091 41.2074 20.4091V18.4091C40.511 18.4091 39.9454 18.2629 39.4798 18.0023L38.5032 19.7477ZM41.2074 20.4091C42.1925 20.4091 43.1026 20.1994 43.9047 19.7452L42.9192 18.0048C42.4637 18.2628 41.9041 18.4091 41.2074 18.4091V20.4091ZM43.9002 19.7477C44.6947 19.3032 45.3237 18.68 45.7707 17.8905L44.0304 16.905C43.7653 17.373 43.4019 17.7347 42.9236 18.0023L43.9002 19.7477ZM45.7707 17.8905C46.2211 17.0952 46.4347 16.2061 46.4347 15.25H44.4347C44.4347 15.9 44.2922 16.4427 44.0304 16.905L45.7707 17.8905ZM46.4347 15.25V0.727272H44.4347V15.25H46.4347ZM54.5739 24H53.5739V25H54.5739V24ZM54.5739 0.727272V-0.272728H53.5739V0.727272H54.5739ZM70.8011 0.727272H71.8011V-0.272728H70.8011V0.727272ZM70.8011 5.29545V6.29545H71.8011V5.29545H70.8011ZM60.1989 5.29545V4.29545H59.1989V5.29545H60.1989ZM60.1989 10.0682H59.1989V11.0682H60.1989V10.0682ZM69.9716 10.0682H70.9716V9.06818H69.9716V10.0682ZM69.9716 14.6477V15.6477H70.9716V14.6477H69.9716ZM60.1989 14.6477V13.6477H59.1989V14.6477H60.1989ZM60.1989 19.4318H59.1989V20.4318H60.1989V19.4318ZM70.8011 19.4318H71.8011V18.4318H70.8011V19.4318ZM70.8011 24V25H71.8011V24H70.8011ZM55.5739 24V0.727272H53.5739V24H55.5739ZM54.5739 1.72727H70.8011V-0.272728H54.5739V1.72727ZM69.8011 0.727272V5.29545H71.8011V0.727272H69.8011ZM70.8011 4.29545H60.1989V6.29545H70.8011V4.29545ZM59.1989 5.29545V10.0682H61.1989V5.29545H59.1989ZM60.1989 11.0682H69.9716V9.06818H60.1989V11.0682ZM68.9716 10.0682V14.6477H70.9716V10.0682H68.9716ZM69.9716 13.6477H60.1989V15.6477H69.9716V13.6477ZM59.1989 14.6477V19.4318H61.1989V14.6477H59.1989ZM60.1989 20.4318H70.8011V18.4318H60.1989V20.4318ZM69.8011 19.4318V24H71.8011V19.4318H69.8011ZM70.8011 23H54.5739V25H70.8011V23ZM74.3239 24H73.3239V25H74.3239V24ZM74.3239 0.727272V-0.272728H73.3239V0.727272H74.3239ZM88.4034 1.46591L88.0167 2.3881L88.0188 2.38898L88.4034 1.46591ZM91.0625 3.53409L90.2304 4.0888L90.2337 4.09368L91.0625 3.53409ZM91.4034 8.98864L92.2839 9.46274L92.286 9.45873L91.4034 8.98864ZM89.8693 10.7045L89.2971 9.88442V9.88442L89.8693 10.7045ZM87.608 11.6591L87.4002 10.6809L86.608 10.8492V11.6591H87.608ZM87.608 11.8864H86.608V12.8391L87.5596 12.8852L87.608 11.8864ZM90.2102 12.6477L89.7079 13.5124L89.7114 13.5145L90.2102 12.6477ZM92.142 14.5795L91.2797 15.0859L91.2818 15.0893L92.142 14.5795ZM91.9148 20.8409L92.7528 21.3866L92.7547 21.3836L91.9148 20.8409ZM89.1534 23.1591L89.5754 24.0657L89.58 24.0635L89.1534 23.1591ZM79.9489 19.4659H78.9489V20.4659H79.9489V19.4659ZM86.1193 18.7727L85.4983 17.9889L85.4934 17.9929L86.1193 18.7727ZM86.5739 15.2955L85.7308 15.8333L85.7351 15.8399L86.5739 15.2955ZM85.3807 14.2841L84.9548 15.189L84.9659 15.194L85.3807 14.2841ZM79.9489 13.9205V12.9205H78.9489V13.9205H79.9489ZM79.9489 10.2955H78.9489V11.2955H79.9489V10.2955ZM85.8125 9.10227L84.9955 8.52554L84.988 8.53643L85.8125 9.10227ZM85.392 5.86364L86.0206 5.0859V5.08589L85.392 5.86364ZM79.9489 5.19318V4.19318H78.9489V5.19318H79.9489ZM75.3239 24V0.727272H73.3239V24H75.3239ZM74.3239 1.72727H84.0284V-0.272728H74.3239V1.72727ZM84.0284 1.72727C85.6839 1.72727 87.0011 1.96221 88.0167 2.3881L88.7901 0.543714C87.4572 -0.0152395 85.8578 -0.272728 84.0284 -0.272728V1.72727ZM88.0188 2.38898C89.0557 2.82102 89.7695 3.39738 90.2305 4.08879L91.8945 2.97939C91.1737 1.89807 90.1148 1.09564 88.788 0.542831L88.0188 2.38898ZM90.2337 4.09368C90.7105 4.79974 90.9602 5.62746 90.9602 6.61364H92.9602C92.9602 5.26648 92.6115 4.04117 91.8913 2.9745L90.2337 4.09368ZM90.9602 6.61364C90.9602 7.35642 90.8059 7.98325 90.5208 8.51855L92.286 9.45873C92.7433 8.60008 92.9602 7.64358 92.9602 6.61364H90.9602ZM90.5229 8.51454C90.2271 9.06396 89.8222 9.51812 89.2971 9.88442L90.4415 11.5247C91.2195 10.9819 91.8373 10.2921 92.2839 9.46274L90.5229 8.51454ZM89.2971 9.88442C88.766 10.255 88.1388 10.524 87.4002 10.6809L87.8157 12.6373C88.7892 12.4305 89.6696 12.0632 90.4415 11.5247L89.2971 9.88442ZM86.608 11.6591V11.8864H88.608V11.6591H86.608ZM87.5596 12.8852C88.3428 12.9231 89.054 13.1325 89.7079 13.5124L90.7126 11.7831C89.7755 11.2387 88.7519 10.9405 87.6563 10.8875L87.5596 12.8852ZM89.7114 13.5145C90.3589 13.887 90.8796 14.4045 91.2797 15.0859L93.0044 14.0732C92.4347 13.1031 91.6676 12.3327 90.709 11.781L89.7114 13.5145ZM91.2818 15.0893C91.6599 15.7275 91.8693 16.5144 91.8693 17.4886H93.8693C93.8693 16.2204 93.5938 15.0679 93.0023 14.0697L91.2818 15.0893ZM91.8693 17.4886C91.8693 18.5594 91.5997 19.4859 91.0749 20.2982L92.7547 21.3836C93.5025 20.2262 93.8693 18.9179 93.8693 17.4886H91.8693ZM91.0768 20.2952C90.5554 21.096 89.7879 21.7541 88.7268 22.2547L89.58 24.0635C90.928 23.4277 92.0014 22.5404 92.7528 21.3866L91.0768 20.2952ZM88.7315 22.2525C87.692 22.7363 86.3822 23 84.767 23V25C86.5913 25 88.2058 24.7031 89.5754 24.0657L88.7315 22.2525ZM84.767 23H74.3239V25H84.767V23ZM79.9489 20.4659H83.4261V18.4659H79.9489V20.4659ZM83.4261 20.4659C84.7368 20.4659 85.9087 20.2241 86.7453 19.5526L85.4934 17.9929C85.1784 18.2456 84.5549 18.4659 83.4261 18.4659V20.4659ZM86.7403 19.5566C87.5914 18.8823 87.9943 17.934 87.9943 16.8409H85.9943C85.9943 17.3994 85.8139 17.7389 85.4984 17.9889L86.7403 19.5566ZM87.9943 16.8409C87.9943 16.0813 87.8144 15.3699 87.4126 14.751L85.7351 15.8399C85.894 16.0847 85.9943 16.4036 85.9943 16.8409H87.9943ZM87.4169 14.7576C87.0238 14.1414 86.4705 13.6819 85.7955 13.3742L84.9659 15.194C85.3211 15.356 85.5633 15.5707 85.7308 15.8333L87.4169 14.7576ZM85.8065 13.3793C85.1278 13.0599 84.3576 12.9205 83.5284 12.9205V14.9205C84.1386 14.9205 84.6033 15.0234 84.9549 15.1889L85.8065 13.3793ZM83.5284 12.9205H79.9489V14.9205H83.5284V12.9205ZM78.9489 13.9205V19.4659H80.9489V13.9205H78.9489ZM79.9489 11.2955H83.0625V9.29545H79.9489V11.2955ZM83.0625 11.2955C83.7873 11.2955 84.4705 11.1745 85.0928 10.9078L84.3049 9.06949C83.9726 9.2119 83.5649 9.29545 83.0625 9.29545V11.2955ZM85.0928 10.9078C85.7247 10.637 86.2533 10.2272 86.637 9.66811L84.988 8.53643C84.8414 8.75004 84.6276 8.93122 84.3049 9.06949L85.0928 10.9078ZM86.6295 9.67896C87.0389 9.09897 87.2216 8.42378 87.2216 7.70454H85.2216C85.2216 8.07622 85.1316 8.33285 84.9955 8.52559L86.6295 9.67896ZM87.2216 7.70454C87.2216 6.65571 86.8334 5.74283 86.0206 5.0859L84.7635 6.64138C85.0567 6.87839 85.2216 7.19277 85.2216 7.70454H87.2216ZM86.0206 5.08589C85.2396 4.45469 84.2477 4.19318 83.1534 4.19318V6.19318C83.9379 6.19318 84.4384 6.37865 84.7635 6.64138L86.0206 5.08589ZM83.1534 4.19318H79.9489V6.19318H83.1534V4.19318ZM78.9489 5.19318V10.2955H80.9489V5.19318H78.9489ZM95.5739 24H94.5739V25H95.5739V24ZM95.5739 0.727272V-0.272728H94.5739V0.727272H95.5739ZM109.699 1.67045L109.254 2.56597L109.26 2.56912L109.699 1.67045ZM112.642 4.35227L111.781 4.861L111.783 4.86346L112.642 4.35227ZM112.619 12.5909L113.466 13.123L113.468 13.1204L112.619 12.5909ZM109.619 15.1591L110.03 16.0709L110.034 16.0689L109.619 15.1591ZM98.9375 16.0341H97.9375V17.0341H98.9375V16.0341ZM98.9375 11.6023V10.6023H97.9375V11.6023H98.9375ZM106.097 11.2727L106.457 12.2055L106.464 12.2029L106.097 11.2727ZM107.403 10.25L108.242 10.795L108.246 10.7887L107.403 10.25ZM107.403 6.69318L106.553 7.21955L106.557 7.22563L107.403 6.69318ZM106.097 5.625L105.709 6.54669L105.719 6.55093L106.097 5.625ZM101.199 5.26136V4.26136H100.199V5.26136H101.199ZM101.199 24V25H102.199V24H101.199ZM108.676 13.3636L109.554 12.8852L109.27 12.3636H108.676V13.3636ZM114.472 24V25H116.155L115.35 23.5215L114.472 24ZM108.335 24L107.453 24.4712L107.736 25H108.335V24ZM102.653 13.3636V12.3636H100.985L101.771 13.8348L102.653 13.3636ZM96.5739 24V0.727272H94.5739V24H96.5739ZM95.5739 1.72727H105.188V-0.272728H95.5739V1.72727ZM105.188 1.72727C106.811 1.72727 108.155 2.02006 109.254 2.56595L110.144 0.774957C108.712 0.0632675 107.049 -0.272728 105.188 -0.272728V1.72727ZM109.26 2.56912C110.365 3.10856 111.196 3.87068 111.781 4.861L113.503 3.84354C112.709 2.50053 111.578 1.47477 110.137 0.771788L109.26 2.56912ZM111.783 4.86346C112.365 5.84209 112.676 7.03368 112.676 8.47727H114.676C114.676 6.73904 114.298 5.18064 113.502 3.84108L111.783 4.86346ZM112.676 8.47727C112.676 9.94371 112.357 11.1223 111.771 12.0614L113.468 13.1204C114.291 11.802 114.676 10.2381 114.676 8.47727H112.676ZM111.773 12.0589C111.18 13.0021 110.336 13.733 109.204 14.2493L110.034 16.0689C111.493 15.4033 112.65 14.4221 113.466 13.123L111.773 12.0589ZM109.209 14.2473C108.07 14.76 106.682 15.0341 105.017 15.0341V17.0341C106.897 17.0341 108.578 16.7249 110.03 16.0709L109.209 14.2473ZM105.017 15.0341H98.9375V17.0341H105.017V15.0341ZM99.9375 16.0341V11.6023H97.9375V16.0341H99.9375ZM98.9375 12.6023H103.972V10.6023H98.9375V12.6023ZM103.972 12.6023C104.898 12.6023 105.738 12.4834 106.457 12.2054L105.736 10.34C105.318 10.5015 104.742 10.6023 103.972 10.6023V12.6023ZM106.464 12.2029C107.204 11.9105 107.818 11.4478 108.242 10.795L106.565 9.70501C106.398 9.96133 106.14 10.1804 105.729 10.3426L106.464 12.2029ZM108.246 10.7887C108.672 10.1227 108.847 9.3294 108.847 8.47727H106.847C106.847 9.06454 106.726 9.4531 106.561 9.71134L108.246 10.7887ZM108.847 8.47727C108.847 7.62422 108.671 6.83084 108.25 6.16073L106.557 7.22563C106.726 7.49492 106.847 7.89093 106.847 8.47727H108.847ZM108.254 6.16683C107.835 5.49042 107.224 5.00475 106.474 4.69907L105.719 6.55093C106.121 6.71495 106.381 6.9414 106.553 7.21954L108.254 6.16683ZM106.485 4.70336C105.751 4.39466 104.902 4.26136 103.972 4.26136V6.26136C104.723 6.26136 105.29 6.37049 105.709 6.54664L106.485 4.70336ZM103.972 4.26136H101.199V6.26136H103.972V4.26136ZM100.199 5.26136V24H102.199V5.26136H100.199ZM101.199 23H95.5739V25H101.199V23ZM107.798 13.8421L113.593 24.4785L115.35 23.5215L109.554 12.8852L107.798 13.8421ZM114.472 23H108.335V25H114.472V23ZM109.217 23.5288L103.535 12.8925L101.771 13.8348L107.453 24.4712L109.217 23.5288ZM102.653 14.3636H108.676V12.3636H102.653V14.3636ZM121.795 24V25H122.53L122.75 24.299L121.795 24ZM115.75 24L114.802 23.6803L114.357 25H115.75V24ZM123.602 0.727272V-0.272728H122.884L122.655 0.407576L123.602 0.727272ZM131.091 0.727272L132.038 0.407577L131.809 -0.272728H131.091V0.727272ZM138.943 24V25H140.336L139.891 23.6803L138.943 24ZM132.898 24L131.944 24.2996L132.164 25H132.898V24ZM127.432 6.59091L128.386 6.29136L128.166 5.59091H127.432V6.59091ZM127.25 6.59091V5.59091H126.515L126.296 6.29192L127.25 6.59091ZM120.989 14.8409V13.8409H119.989V14.8409H120.989ZM133.625 14.8409H134.625V13.8409H133.625V14.8409ZM133.625 19.1136V20.1136H134.625V19.1136H133.625ZM120.989 19.1136H119.989V20.1136H120.989V19.1136ZM121.795 23H115.75V25H121.795V23ZM116.698 24.3197L124.55 1.04697L122.655 0.407576L114.802 23.6803L116.698 24.3197ZM123.602 1.72727H131.091V-0.272728H123.602V1.72727ZM130.143 1.04697L137.996 24.3197L139.891 23.6803L132.038 0.407577L130.143 1.04697ZM138.943 23H132.898V25H138.943V23ZM133.852 23.7004L128.386 6.29136L126.478 6.89046L131.944 24.2996L133.852 23.7004ZM127.432 5.59091H127.25V7.59091H127.432V5.59091ZM126.296 6.29192L120.841 23.701L122.75 24.299L128.204 6.88989L126.296 6.29192ZM120.989 15.8409H133.625V13.8409H120.989V15.8409ZM132.625 14.8409V19.1136H134.625V14.8409H132.625ZM133.625 18.1136H120.989V20.1136H133.625V18.1136ZM121.989 19.1136V14.8409H119.989V19.1136H121.989ZM45.6122 32.3295L44.6467 32.5901L44.8463 33.3295H45.6122V32.3295ZM45.044 31.0682L44.2146 31.6268L44.22 31.6347L45.044 31.0682ZM42.8736 29.5455L42.5948 30.5058L42.6019 30.5079L42.6091 30.5099L42.8736 29.5455ZM38.3963 30.1591L37.8451 29.3247L37.8416 29.327L38.3963 30.1591ZM36.4986 32.5455L37.417 32.941L37.4181 32.9386L36.4986 32.5455ZM36.4759 40.1477L37.4011 39.7683L36.4759 40.1477ZM38.3509 42.5568L38.9109 41.7283L38.3509 42.5568ZM43.9418 42.8864L44.3657 43.7921L44.3699 43.7901L43.9418 42.8864ZM45.5781 41.4432L44.7197 40.9302L45.5781 41.4432ZM46.1349 39.25L46.2537 38.2571L45.1349 38.1233V39.25H46.1349ZM47.1804 39.375V40.375L47.2991 38.3821L47.1804 39.375ZM41.5213 39.375H40.5213V40.375H41.5213V39.375ZM41.5213 35.2727V34.2727H40.5213V35.2727H41.5213ZM51.5554 35.2727H52.5554V34.2727H51.5554V35.2727ZM50.2259 43.7045L49.3672 43.192L49.3653 43.1952L50.2259 43.7045ZM46.5895 47.125L46.1318 46.2359L46.1301 46.2368L46.5895 47.125ZM35.4304 46.875L35.927 46.007L35.4304 46.875ZM31.4986 42.7614L30.6133 43.2265L30.6142 43.228L31.4986 42.7614ZM30.9418 31.3182L31.8751 31.6772L31.8757 31.6756L30.9418 31.3182ZM33.3168 27.5455L32.607 26.841L32.6044 26.8436L33.3168 27.5455ZM36.8622 25.2045L36.4962 24.2739L36.4944 24.2746L36.8622 25.2045ZM44.9759 24.9886L44.6596 25.9373L44.6615 25.9379L44.9759 24.9886ZM48.0668 26.625L47.4478 27.4104L47.451 27.4129L48.0668 26.625ZM50.2599 29.1364L49.3942 29.6369V29.6369L50.2599 29.1364ZM51.3054 32.3295V33.3295H52.4299L52.2985 32.2127L51.3054 32.3295ZM46.5777 32.069C46.4229 31.4955 46.1894 30.9691 45.8681 30.5017L44.22 31.6347C44.3987 31.8946 44.5439 32.209 44.6467 32.5901L46.5777 32.069ZM45.8735 30.5096C45.5562 30.0385 45.1644 29.6368 44.7016 29.309L43.5456 30.941C43.8101 31.1284 44.0319 31.3554 44.2146 31.6268L45.8735 30.5096ZM44.7016 29.309C44.2344 28.9781 43.7096 28.7378 43.138 28.5811L42.6091 30.5099C42.9769 30.6107 43.2855 30.7568 43.5456 30.941L44.7016 29.309ZM43.1524 28.5851C42.58 28.4189 41.9696 28.3409 41.3281 28.3409V30.3409C41.8079 30.3409 42.2278 30.3993 42.5948 30.5058L43.1524 28.5851ZM41.3281 28.3409C40.0317 28.3409 38.8566 28.6566 37.8451 29.3247L38.9475 30.9935C39.5875 30.5707 40.3669 30.3409 41.3281 30.3409V28.3409ZM37.8416 29.327C36.8377 29.9963 36.0902 30.9568 35.5791 32.1523L37.4181 32.9386C37.8009 32.0432 38.3185 31.4128 38.951 30.9911L37.8416 29.327ZM35.5801 32.1499C35.0653 33.3453 34.8281 34.7493 34.8281 36.3295H36.8281C36.8281 34.9401 37.0379 33.8213 37.417 32.941L35.5801 32.1499ZM34.8281 36.3295C34.8281 37.9136 35.0567 39.3226 35.5506 40.5271L37.4011 39.7683C37.0314 38.8668 36.8281 37.7303 36.8281 36.3295H34.8281ZM35.5506 40.5271C36.0455 41.734 36.7855 42.7058 37.7909 43.3853L38.9109 41.7283C38.2799 41.3018 37.7698 40.6675 37.4011 39.7683L35.5506 40.5271ZM37.7909 43.3853C38.8026 44.0692 39.9988 44.3864 41.3281 44.3864V42.3864C40.3241 42.3864 39.5355 42.1505 38.9109 41.7283L37.7909 43.3853ZM41.3281 44.3864C42.4614 44.3864 43.4864 44.2036 44.3657 43.7921L43.5178 41.9807C42.9729 42.2358 42.2555 42.3864 41.3281 42.3864V44.3864ZM44.3699 43.7901C45.2498 43.3733 45.9536 42.7643 46.4365 41.9561L44.7197 40.9302C44.4602 41.3645 44.0731 41.7176 43.5137 41.9826L44.3699 43.7901ZM46.4365 41.9561C46.9145 41.1562 47.1349 40.2419 47.1349 39.25H45.1349C45.1349 39.9399 44.9841 40.4877 44.7197 40.9302L46.4365 41.9561ZM46.0162 40.2429L47.0617 40.3679L47.2991 38.3821L46.2537 38.2571L46.0162 40.2429ZM47.1804 38.375H41.5213V40.375H47.1804V38.375ZM42.5213 39.375V35.2727H40.5213V39.375H42.5213ZM41.5213 36.2727H51.5554V34.2727H41.5213V36.2727ZM50.5554 35.2727V38.3523H52.5554V35.2727H50.5554ZM50.5554 38.3523C50.5554 40.2922 50.1438 41.8911 49.3672 43.192L51.0845 44.2171C52.0807 42.5483 52.5554 40.579 52.5554 38.3523H50.5554ZM49.3653 43.1952C48.5831 44.5168 47.5112 45.5259 46.1318 46.2359L47.0471 48.0141C48.7587 47.1332 50.111 45.862 51.0864 44.2139L49.3653 43.1952ZM46.1301 46.2368C44.7548 46.9481 43.1477 47.3182 41.2827 47.3182V49.3182C43.4177 49.3182 45.3485 48.8928 47.0489 48.0132L46.1301 46.2368ZM41.2827 47.3182C39.2114 47.3182 37.4367 46.8707 35.927 46.007L34.9338 47.743C36.7877 48.8036 38.9145 49.3182 41.2827 49.3182V47.3182ZM35.927 46.007C34.4165 45.1429 33.2374 43.914 32.383 42.2947L30.6142 43.228C31.6385 45.1693 33.0806 46.6828 34.9338 47.743L35.927 46.007ZM32.3838 42.2962C31.5344 40.6795 31.0895 38.7247 31.0895 36.3977H29.0895C29.0895 38.9798 29.584 41.2674 30.6133 43.2265L32.3838 42.2962ZM31.0895 36.3977C31.0895 34.5867 31.359 33.0189 31.8751 31.6772L30.0084 30.9592C29.3881 32.572 29.0895 34.3905 29.0895 36.3977H31.0895ZM31.8757 31.6756C32.3995 30.3067 33.12 29.1699 34.0291 28.2473L32.6044 26.8436C31.4832 27.9816 30.6204 29.3599 30.0078 30.9608L31.8757 31.6756ZM34.0265 28.2499C34.9527 27.3169 36.0183 26.6137 37.23 26.1345L36.4944 24.2746C35.0243 24.856 33.7263 25.7134 32.607 26.841L34.0265 28.2499ZM37.2282 26.1352C38.452 25.6539 39.7777 25.4091 41.2145 25.4091V23.4091C39.5453 23.4091 37.9694 23.6946 36.4962 24.2739L37.2282 26.1352ZM41.2145 25.4091C42.4666 25.4091 43.6125 25.5883 44.6596 25.9373L45.2921 24.04C44.021 23.6163 42.6594 23.4091 41.2145 23.4091V25.4091ZM44.6615 25.9379C45.7267 26.2907 46.6521 26.7833 47.4478 27.4104L48.6858 25.8396C47.6936 25.0576 46.5584 24.4593 45.2902 24.0393L44.6615 25.9379ZM47.451 27.4129C48.2538 28.0403 48.8991 28.7805 49.3942 29.6369L51.1257 28.6359C50.4995 27.5528 49.6828 26.6188 48.6825 25.8371L47.451 27.4129ZM49.3942 29.6369C49.8838 30.4837 50.1911 31.4167 50.3122 32.4464L52.2985 32.2127C52.147 30.9242 51.7573 29.7284 51.1257 28.6359L49.3942 29.6369ZM51.3054 31.3295H45.6122V33.3295H51.3054V31.3295ZM54.8707 48H53.8707V49H54.8707V48ZM54.8707 24.7273V23.7273H53.8707V24.7273H54.8707ZM71.098 24.7273H72.098V23.7273H71.098V24.7273ZM71.098 29.2955V30.2955H72.098V29.2955H71.098ZM60.4957 29.2955V28.2955H59.4957V29.2955H60.4957ZM60.4957 34.0682H59.4957V35.0682H60.4957V34.0682ZM70.2685 34.0682H71.2685V33.0682H70.2685V34.0682ZM70.2685 38.6477V39.6477H71.2685V38.6477H70.2685ZM60.4957 38.6477V37.6477H59.4957V38.6477H60.4957ZM60.4957 43.4318H59.4957V44.4318H60.4957V43.4318ZM71.098 43.4318H72.098V42.4318H71.098V43.4318ZM71.098 48V49H72.098V48H71.098ZM55.8707 48V24.7273H53.8707V48H55.8707ZM54.8707 25.7273H71.098V23.7273H54.8707V25.7273ZM70.098 24.7273V29.2955H72.098V24.7273H70.098ZM71.098 28.2955H60.4957V30.2955H71.098V28.2955ZM59.4957 29.2955V34.0682H61.4957V29.2955H59.4957ZM60.4957 35.0682H70.2685V33.0682H60.4957V35.0682ZM69.2685 34.0682V38.6477H71.2685V34.0682H69.2685ZM70.2685 37.6477H60.4957V39.6477H70.2685V37.6477ZM59.4957 38.6477V43.4318H61.4957V38.6477H59.4957ZM60.4957 44.4318H71.098V42.4318H60.4957V44.4318ZM70.098 43.4318V48H72.098V43.4318H70.098ZM71.098 47H54.8707V49H71.098V47ZM74.6207 48H73.6207V49H74.6207V48ZM74.6207 24.7273V23.7273H73.6207V24.7273H74.6207ZM80.2457 24.7273H81.2457V23.7273H80.2457V24.7273ZM80.2457 43.4318H79.2457V44.4318H80.2457V43.4318ZM89.9276 43.4318H90.9276V42.4318H89.9276V43.4318ZM89.9276 48V49H90.9276V48H89.9276ZM75.6207 48V24.7273H73.6207V48H75.6207ZM74.6207 25.7273H80.2457V23.7273H74.6207V25.7273ZM79.2457 24.7273V43.4318H81.2457V24.7273H79.2457ZM80.2457 44.4318H89.9276V42.4318H80.2457V44.4318ZM88.9276 43.4318V48H90.9276V43.4318H88.9276ZM89.9276 47H74.6207V49H89.9276V47ZM112.422 42.875L111.547 42.3909L112.422 42.875ZM108.422 46.9318L107.94 46.0554L107.939 46.0564L108.422 46.9318ZM97.1378 46.9205L97.6241 46.0467L97.1378 46.9205ZM93.1491 42.8636L92.2725 43.3448L92.275 43.3493L93.1491 42.8636ZM93.1491 29.8523L92.2741 29.3682L92.2725 29.3711L93.1491 29.8523ZM97.1378 25.7955L97.6211 26.6709L97.1378 25.7955ZM108.422 25.7955L107.939 26.6709L107.94 26.6718L108.422 25.7955ZM112.422 29.8523L111.547 30.3363L112.422 29.8523ZM107.501 32.5227L106.575 32.8988L106.577 32.9045L107.501 32.5227ZM105.661 30.1477L105.1 30.9761L105.104 30.9786L105.661 30.1477ZM99.9105 30.1477L100.467 30.9786L99.9105 30.1477ZM98.0582 32.5227L97.134 32.141L97.1316 32.1467L98.0582 32.5227ZM98.0582 40.2045L97.1316 40.5806L97.134 40.5863L98.0582 40.2045ZM99.9105 42.5795L100.467 41.7487L99.9105 42.5795ZM105.661 42.5795L105.104 41.7487L105.1 41.7512L105.661 42.5795ZM107.501 40.2045L106.577 39.8228L106.575 39.8285L107.501 40.2045ZM112.899 36.3636C112.899 38.7979 112.431 40.7924 111.547 42.3909L113.297 43.3591C114.382 41.397 114.899 39.0506 114.899 36.3636H112.899ZM111.547 42.3909C110.648 44.0163 109.446 45.2277 107.94 46.0554L108.903 47.8082C110.761 46.7874 112.226 45.2943 113.297 43.3591L111.547 42.3909ZM107.939 46.0564C106.425 46.8917 104.715 47.3182 102.786 47.3182V49.3182C105.022 49.3182 107.07 48.8204 108.905 47.8073L107.939 46.0564ZM102.786 47.3182C100.849 47.3182 99.1363 46.8883 97.6241 46.0467L96.6515 47.7942C98.4878 48.8162 100.54 49.3182 102.786 49.3182V47.3182ZM97.6241 46.0467C96.1225 45.2109 94.9231 43.9977 94.0233 42.378L92.275 43.3493C93.3449 45.2751 94.8046 46.7664 96.6515 47.7942L97.6241 46.0467ZM94.0258 42.3824C93.1477 40.7828 92.6832 38.7909 92.6832 36.3636H90.6832C90.6832 39.0424 91.1961 41.3838 92.2725 43.3448L94.0258 42.3824ZM92.6832 36.3636C92.6832 33.9282 93.1479 31.9327 94.0258 30.3335L92.2725 29.3711C91.1959 31.3325 90.6832 33.6779 90.6832 36.3636H92.6832ZM94.0242 30.3363C94.924 28.7098 96.1223 27.4983 97.6211 26.6709L96.6545 24.92C94.8048 25.9411 93.344 27.4342 92.2741 29.3682L94.0242 30.3363ZM97.6211 26.6709C99.1338 25.8358 100.847 25.4091 102.786 25.4091V23.4091C100.542 23.4091 98.4903 23.9066 96.6545 24.92L97.6211 26.6709ZM102.786 25.4091C104.715 25.4091 106.425 25.8355 107.939 26.6709L108.905 24.92C107.07 23.9069 105.022 23.4091 102.786 23.4091V25.4091ZM107.94 26.6718C109.446 27.4995 110.648 28.7109 111.547 30.3363L113.297 29.3682C112.226 27.433 110.761 25.9399 108.903 24.9191L107.94 26.6718ZM111.547 30.3363C112.431 31.9349 112.899 33.9294 112.899 36.3636H114.899C114.899 33.6767 114.382 31.3302 113.297 29.3682L111.547 30.3363ZM109.149 36.3636C109.149 34.7595 108.921 33.341 108.426 32.141L106.577 32.9045C106.945 33.7953 107.149 34.9375 107.149 36.3636H109.149ZM108.428 32.1467C107.942 30.9478 107.212 29.9836 106.217 29.3169L105.104 30.9786C105.715 31.3876 106.213 32.0067 106.575 32.8987L108.428 32.1467ZM106.221 29.3193C105.234 28.6518 104.072 28.3409 102.786 28.3409V30.3409C103.741 30.3409 104.497 30.5679 105.1 30.9761L106.221 29.3193ZM102.786 28.3409C101.505 28.3409 100.346 28.6526 99.354 29.3169L100.467 30.9786C101.081 30.567 101.839 30.3409 102.786 30.3409V28.3409ZM99.354 29.3169C98.3602 29.9825 97.6281 30.9446 97.134 32.141L98.9825 32.9045C99.352 32.01 99.8547 31.3887 100.467 30.9786L99.354 29.3169ZM97.1316 32.1467C96.6454 33.3449 96.4219 34.7612 96.4219 36.3636H98.4219C98.4219 34.9358 98.6226 33.7914 98.9848 32.8987L97.1316 32.1467ZM96.4219 36.3636C96.4219 37.9661 96.6454 39.3824 97.1316 40.5806L98.9848 39.8285C98.6226 38.9358 98.4219 37.7915 98.4219 36.3636H96.4219ZM97.134 40.5863C97.6281 41.7827 98.3602 42.7447 99.354 43.4104L100.467 41.7487C99.8547 41.3386 99.352 40.7173 98.9825 39.8228L97.134 40.5863ZM99.354 43.4104C100.346 44.0746 101.505 44.3864 102.786 44.3864V42.3864C101.839 42.3864 101.081 42.1602 100.467 41.7487L99.354 43.4104ZM102.786 44.3864C104.072 44.3864 105.234 44.0754 106.221 43.4079L105.1 41.7512C104.497 42.1594 103.741 42.3864 102.786 42.3864V44.3864ZM106.217 43.4104C107.212 42.7436 107.942 41.7794 108.428 40.5806L106.575 39.8285C106.213 40.7206 105.715 41.3397 105.104 41.7487L106.217 43.4104ZM108.426 40.5863C108.921 39.3863 109.149 37.9678 109.149 36.3636H107.149C107.149 37.7898 106.945 38.9319 106.577 39.8228L108.426 40.5863Z" fill="black" mask="url(#path-3-outside-2_5_409)"/>
</svg>
