<svg width="334" height="344" viewBox="0 0 334 344" fill="none" xmlns="http://www.w3.org/2000/svg">
<path d="M163.907 69.1185H173.804L183.081 70.0741L187.72 71.0296L189.267 71.6667L192.359 72.6222V73.2593H202.565L209.059 75.4889L215.863 76.1259L218.028 75.8074L222.048 76.1259L222.357 76.4445L226.996 76.763L232.563 78.037L234.728 78.9926L238.13 79.6296V80.2667L239.985 80.5852V81.2222L241.531 81.5408L241.841 82.8148L243.078 83.4519L244.315 85.0445V86H244.933L245.552 88.8667L245.861 90.4593V98.1037L245.552 102.244L245.861 102.881V111.481L245.552 113.711H244.933V115.304L244.315 116.896V122.63L244.933 124.859V141.104L244.315 143.97V147.793L244.933 148.111V148.748L246.48 149.067L247.717 150.659V151.296L248.644 151.615L249.263 153.207H249.881L251.737 157.03L252.046 158.941V164.356L251.118 170.407L249.881 174.867L247.717 179.963V180.6L249.263 181.874L250.191 183.467V188.244L249.881 189.519L250.191 190.793H250.809L251.737 193.022L252.665 195.889L252.974 198.756V203.852L252.356 207.993L251.118 210.859L248.954 214.044L247.717 214.363V215L245.861 215.956L244.006 216.593L242.459 216.911V217.548L240.604 218.504H239.985L239.676 220.096H239.057V221.052H238.439L238.13 222.963H237.511L236.893 224.556L235.346 226.148L233.491 227.104H230.707V226.467L229.47 226.148V225.511H228.852L228.233 224.237V219.459L226.996 219.141L225.45 217.548V216.911L224.522 216.593L223.594 215V214.363H222.976L222.357 213.089V208.311L222.976 207.037H223.594L223.904 205.763L226.996 203.852L229.47 203.533L227.306 201.622H225.759L224.831 201.941L224.522 202.896L222.976 203.852H222.357L222.048 204.807L219.883 206.081L218.337 206.4H213.08L210.915 205.444V204.807L209.678 204.17L209.368 202.896H208.75V199.074H209.368L209.678 197.481H210.296V196.844L213.08 194.933L215.863 193.978H217.718V193.341L219.574 193.022L219.883 192.067H220.502V191.43L222.976 189.2L223.904 187.926H224.522L224.831 186.97H225.45L225.759 186.015H226.378V185.378H226.996V184.741L228.852 184.422V183.785H229.78V181.874H230.398L230.707 180.281L231.326 179.326L235.346 177.733L237.202 177.415L237.511 175.822L238.439 173.911L238.13 172.956L237.511 173.593H236.583V174.23L234.728 175.185H233.8V175.822L231.635 176.141V176.778L230.398 177.733H229.161V178.37L228.543 178.689H226.687V179.326L223.285 179.644L222.976 181.237H222.357L221.739 182.83L221.12 183.785H220.502L219.883 185.378L218.646 185.696V186.333L217.409 187.289H216.481V187.926L214.626 189.2H213.698V189.837L212.461 190.474H211.533L211.224 191.43L210.296 192.385L208.441 193.341H207.822V193.978L206.276 194.296V194.933L204.42 195.252V195.889L201.018 197.481L199.472 197.8H196.38V198.437H194.524V211.178H195.143L195.761 215L196.998 218.185L197.926 220.096V221.37H198.544L198.854 223.281H199.472L200.4 226.148H201.018L201.328 228.059H201.946L202.256 229.652H202.874L203.802 231.244V232.2H204.42L205.039 233.474L208.441 233.793L209.059 234.111V234.748L210.606 235.385V236.341L211.533 236.659L212.77 239.844L213.08 242.711L214.007 244.941V245.896H214.626V246.533H215.244L216.172 249.081L216.791 251.948L217.409 252.267V258L216.481 259.911L215.244 261.504L210.915 264.052L209.059 265.007L206.585 268.193L204.73 271.059L202.565 273.289L201.328 273.926H200.4V274.563L198.235 275.837H197.617V276.793L195.452 277.43L189.576 278.067H182.463L180.298 277.43V276.793L178.133 276.474V275.837L176.587 275.519L175.041 273.926L174.731 272.333H174.113V269.467L173.494 269.148L174.113 267.874V264.689L174.731 260.548L175.659 259.274L176.896 256.726L178.133 255.452H178.752L179.061 254.496L181.226 253.541L182.154 252.585L186.483 251.63L189.267 249.081H190.194V248.444L191.741 247.17H192.359L192.668 244.622L192.359 243.348H193.287V240.481L193.596 239.207H194.215V236.978L193.287 236.659L192.359 235.067L191.741 234.43V233.474H191.122L190.813 232.519L189.885 231.563V230.926H189.267V229.97L188.339 229.652L187.411 228.059V227.104H186.793L186.483 225.511L185.556 225.193L184.009 221.37V220.415H183.391L182.463 216.911L182.154 214.363L181.844 214.044L181.535 211.178V195.889H178.752L175.968 195.252L171.33 193.978V193.341L167.618 193.022V192.385H164.526L158.959 190.474L157.413 189.837V189.2H156.794L156.176 190.793L154.939 194.933L154.63 196.526H154.011L153.702 200.348H153.083V201.941L152.774 202.259V215.956L153.083 216.274V218.185H153.702L154.011 221.689H154.63L155.867 225.83V226.785H156.485L157.722 229.333L160.196 229.652V230.289L161.743 230.607V231.244L162.67 231.563V232.2L163.907 232.519L164.835 236.341V237.296L165.763 237.615L166.691 238.889V239.844L167.618 240.163V241.119H168.237L169.474 244.304L170.093 244.941V245.896H170.711L171.02 249.719L170.093 251.948L169.783 252.585H169.165V253.222H168.546V254.178H167.618L167.309 255.133H166.691L166.072 256.407L164.217 256.726V257.363L160.815 258L160.196 257.681V258.319L159.268 258.637L158.959 259.274H158.341L158.031 260.548L157.413 261.504H156.794L155.867 265.007L154.63 266.6L150.609 269.148L148.135 270.422L144.115 272.015L141.331 272.97L134.218 272.652L129.889 272.015V271.378L128.652 271.059L126.796 270.422V269.785L125.868 269.467V268.83H125.25V268.193H124.631L124.322 267.237V260.23L124.631 257.363H125.25L125.559 255.77L127.724 252.267L130.817 249.719L132.981 249.4V248.763L137.002 247.807L139.167 247.489L141.331 245.896H141.95L142.568 244.622L143.496 244.304L143.806 243.348H144.733V242.711L146.28 241.119V240.481H145.661L145.352 236.341L145.661 234.748H146.28V234.111L146.898 233.793V232.519H146.28V231.563L145.352 231.244V229.652H144.733L144.424 228.059H143.806L142.878 225.83V224.874H142.259L141.95 222.326H141.331L141.022 219.459H140.404L139.476 215.637V203.533L140.094 201.304L140.404 198.437H141.022L141.331 194.615H141.95L142.259 191.43L143.187 189.519V188.244L138.239 187.926L137.93 187.607L134.837 187.289L132.672 186.333V185.696L130.507 185.378L127.724 184.104L127.106 183.785L121.848 183.467L120.611 183.785L117.209 182.83L114.117 181.237L112.57 179.644V179.007H111.952L111.643 177.096H111.024L110.406 174.23L110.096 173.911L109.787 170.089L109.478 169.77V166.267H110.096V154.163L107.622 156.074L104.839 157.667H104.22V158.304L102.674 158.622H100.509V159.259H95.5611L92.7777 158.304H92.1592V157.667L89.9944 157.03L88.1388 155.756V155.119H87.2111V154.481L85.6648 153.844L84.1185 151.933L82.8814 150.659V150.022H82.2629V149.067H81.6444L80.4074 147.156V146.519L79.1703 146.837L76.387 144.926V143.97H72.6759L68.9648 142.378L65.2537 141.104V140.467L64.3259 140.148V139.511H63.7074L62.7796 137.6L62.4703 134.096L62.7796 131.23V130.274H62.1611L61.8518 128.681V124.222L62.1611 122.948H62.7796V121.356H62.1611L61.8518 120.081V117.533L62.7796 115.304L63.7074 114.03H64.3259V113.393L65.2537 112.437L67.1092 111.481L70.2018 111.163L71.4388 110.844V111.481L73.6037 111.163L76.6963 111.8L77.624 108.933L79.1703 107.022L80.4074 105.748L82.5722 104.793H86.5925L88.4481 105.748V106.385H89.0666L89.9944 108.933V110.526L89.0666 112.756H88.4481L88.1388 114.667L87.5203 116.578L87.8296 119.444L88.4481 120.4V121.993H89.0666L89.6851 126.133V128.681L89.3759 129L89.0666 131.23H88.4481L89.0666 133.459L89.9944 135.689V137.919L89.6851 139.83H89.0666L89.3759 142.059H89.9944V142.696L90.9222 143.015V143.652H91.5407L92.4685 144.607V145.244L93.7055 145.563V146.2L95.2518 146.519V147.156H100.509V146.519L102.674 145.244H103.293V144.607L106.076 142.378L107.313 141.741L107.931 140.467L109.478 138.556H110.096L109.168 135.689L108.859 132.504L108.55 131.867V124.222L108.859 123.585L109.168 113.393L109.787 111.481V107.022L109.168 104.793V93.963L110.096 90.7778H110.715L111.024 89.1852H111.643L111.952 87.9111L113.498 86.3185H114.117L114.426 85.363L116.591 83.7704H117.518V83.1333L120.611 81.5408L122.776 81.2222V80.5852L129.27 79.3111H130.507V78.6741L134.218 77.7185L136.383 77.4L136.693 77.0815L143.496 76.4445L145.97 75.1704H146.898L147.207 74.2148L149.372 73.2593H150.918V72.6222L153.702 71.6667L160.506 69.7556L163.907 69.1185Z" fill="#FCFCFC"/>
<path d="M163.907 69.1185H173.804L183.081 70.0741L187.72 71.0296L189.267 71.6667L192.359 72.6222V73.2593H202.565L209.059 75.4889L215.863 76.1259L218.028 75.8074L222.048 76.1259L222.357 76.4445L226.996 76.763L232.563 78.037L234.728 78.9926L238.13 79.6296V80.2667L239.985 80.5852V81.2222L241.531 81.5408L241.841 82.8148L243.078 83.4519L244.315 85.0445V86H244.933L245.552 88.8667L245.861 90.4593V98.1037L245.552 102.244L245.861 102.881V111.481L245.552 113.711H244.933V115.304L244.315 116.896V122.63L244.933 124.859V141.104L244.315 143.97V147.793L244.933 148.111V148.748L246.48 149.067L247.717 150.659V151.296L248.644 151.615L249.263 153.207H249.881L251.737 157.03L252.046 158.941V164.356L251.118 170.407L249.881 174.867L247.717 179.963V180.6L249.263 181.874L250.191 183.467V188.244L249.881 189.519L250.191 190.793H250.809L251.737 193.022L252.665 195.889L252.974 198.756V203.852L252.356 207.993L251.118 210.859L248.954 214.044L247.717 214.363V215L245.861 215.956L244.006 216.593L242.459 216.911V217.548L240.604 218.504H239.985L239.676 220.096H239.057V221.052H238.439L238.13 222.963H237.511L236.893 224.556L235.346 226.148L233.491 227.104H230.707V226.467L229.47 226.148V225.511H228.852L228.233 224.237V219.459L226.996 219.141L225.45 217.548V216.911L224.522 216.593L223.594 215V214.363H222.976L222.357 213.089V208.311L222.976 207.037H223.594L223.904 205.763L226.996 203.852L229.47 203.533L227.306 201.622H225.759L224.831 201.941L224.522 202.896L222.976 203.852H222.357L222.048 204.807L219.883 206.081L218.337 206.4H213.08L210.915 205.444V204.807L209.678 204.17L209.368 202.896H208.75V199.074H209.368L209.678 197.481H210.296V196.844L213.08 194.933L215.863 193.978H217.718V193.341L219.574 193.022L219.883 192.067H220.502V191.43L222.976 189.2L223.904 187.926H224.522L224.831 186.97H225.45L225.759 186.015H226.378V185.378H226.996V184.741L228.852 184.422V183.785H229.78V181.874H230.398L230.707 180.281L231.326 179.326L235.346 177.733L237.202 177.415L237.511 175.822L238.439 173.911L238.13 172.956L237.511 173.593H236.583V174.23L234.728 175.185H233.8V175.822L231.635 176.141V176.778L230.398 177.733H229.161V178.37L228.543 178.689H226.687V179.326L223.285 179.644L222.976 181.237H222.357L221.739 182.83L221.12 183.785H220.502L219.883 185.378L218.646 185.696V186.333L217.409 187.289H216.481V187.926L214.626 189.2H213.698V189.837L212.461 190.474H211.533L211.224 191.43L210.296 192.385L208.441 193.341H207.822V193.978L206.276 194.296V194.933L204.42 195.252V195.889L201.018 197.481L199.472 197.8H196.38V198.437H194.524V211.178H195.143L195.761 215L196.998 218.185L197.926 220.096V221.37H198.544L198.854 223.281H199.472L200.4 226.148H201.018L201.328 228.059H201.946L202.256 229.652H202.874L203.802 231.244V232.2H204.42L205.039 233.474L208.441 233.793L209.059 234.111V234.748L210.606 235.385V236.341L211.533 236.659L212.77 239.844L213.08 242.711L214.007 244.941V245.896H214.626V246.533H215.244L216.172 249.081L216.791 251.948L217.409 252.267V258L216.481 259.911L215.244 261.504L210.915 264.052L209.059 265.007L206.585 268.193L204.73 271.059L202.565 273.289L201.328 273.926H200.4V274.563L198.235 275.837H197.617V276.793L195.452 277.43L189.576 278.067H182.463L180.298 277.43V276.793L178.133 276.474V275.837L176.587 275.519L175.041 273.926L174.731 272.333H174.113V269.467L173.494 269.148L174.113 267.874V264.689L174.731 260.548L175.659 259.274L176.896 256.726L178.133 255.452H178.752L179.061 254.496L181.226 253.541L182.154 252.585L186.483 251.63L189.267 249.081H190.194V248.444L191.741 247.17H192.359L192.668 244.622L192.359 243.348H193.287V240.481L193.596 239.207H194.215V236.978L193.287 236.659L192.359 235.067L191.741 234.43V233.474H191.122L190.813 232.519L189.885 231.563V230.926H189.267V229.97L188.339 229.652L187.411 228.059V227.104H186.793L186.483 225.511L185.556 225.193L184.009 221.37V220.415H183.391L182.463 216.911L182.154 214.363L181.844 214.044L181.535 211.178V195.889H178.752L175.968 195.252L171.33 193.978V193.341L167.618 193.022V192.385H164.526L158.959 190.474L157.413 189.837V189.2H156.794L156.176 190.793L154.939 194.933L154.63 196.526H154.011L153.702 200.348H153.083V201.941L152.774 202.259V215.956L153.083 216.274V218.185H153.702L154.011 221.689H154.63L155.867 225.83V226.785H156.485L157.722 229.333L160.196 229.652V230.289L161.743 230.607V231.244L162.67 231.563V232.2L163.907 232.519L164.835 236.341V237.296L165.763 237.615L166.691 238.889V239.844L167.618 240.163V241.119H168.237L169.474 244.304L170.093 244.941V245.896H170.711L171.02 249.719L170.093 251.948L169.783 252.585H169.165V253.222H168.546V254.178H167.618L167.309 255.133H166.691L166.072 256.407L164.217 256.726V257.363L160.815 258L160.196 257.681V258.319L159.268 258.637L158.959 259.274H158.341L158.031 260.548L157.413 261.504H156.794L155.867 265.007L154.63 266.6L150.609 269.148L148.135 270.422L144.115 272.015L141.331 272.97L134.218 272.652L129.889 272.015V271.378L128.652 271.059L126.796 270.422V269.785L125.868 269.467V268.83H125.25V268.193H124.631L124.322 267.237V260.23L124.631 257.363H125.25L125.559 255.77L127.724 252.267L130.817 249.719L132.981 249.4V248.763L137.002 247.807L139.167 247.489L141.331 245.896H141.95L142.568 244.622L143.496 244.304L143.806 243.348H144.733V242.711L146.28 241.119V240.481H145.661L145.352 236.341L145.661 234.748H146.28V234.111L146.898 233.793V232.519H146.28V231.563L145.352 231.244V229.652H144.733L144.424 228.059H143.806L142.878 225.83V224.874H142.259L141.95 222.326H141.331L141.022 219.459H140.404L139.476 215.637V203.533L140.094 201.304L140.404 198.437H141.022L141.331 194.615H141.95L142.259 191.43L143.187 189.519V188.244L138.239 187.926L137.93 187.607L134.837 187.289L132.672 186.333V185.696L130.507 185.378L127.724 184.104L127.106 183.785L121.848 183.467L120.611 183.785L117.209 182.83L114.117 181.237L112.57 179.644V179.007H111.952L111.643 177.096H111.024L110.406 174.23L110.096 173.911L109.787 170.089L109.478 169.77V166.267H110.096V154.163L107.622 156.074L104.839 157.667H104.22V158.304L102.674 158.622H100.509V159.259H95.5611L92.7777 158.304H92.1592V157.667L89.9944 157.03L88.1388 155.756V155.119H87.2111V154.481L85.6648 153.844L84.1185 151.933L82.8814 150.659V150.022H82.2629V149.067H81.6444L80.4074 147.156V146.519L79.1703 146.837L76.387 144.926V143.97H72.6759L68.9648 142.378L65.2537 141.104V140.467L64.3259 140.148V139.511H63.7074L62.7796 137.6L62.4703 134.096L62.7796 131.23V130.274H62.1611L61.8518 128.681V124.222L62.1611 122.948H62.7796V121.356H62.1611L61.8518 120.081V117.533L62.7796 115.304L63.7074 114.03H64.3259V113.393L65.2537 112.437L67.1092 111.481L70.2018 111.163L71.4388 110.844V111.481L73.6037 111.163L76.6963 111.8L77.624 108.933L79.1703 107.022L80.4074 105.748L82.5722 104.793H86.5925L88.4481 105.748V106.385H89.0666L89.9944 108.933V110.526L89.0666 112.756H88.4481L88.1388 114.667L87.5203 116.578L87.8296 119.444L88.4481 120.4V121.993H89.0666L89.6851 126.133V128.681L89.3759 129L89.0666 131.23H88.4481L89.0666 133.459L89.9944 135.689V137.919L89.6851 139.83H89.0666L89.3759 142.059H89.9944V142.696L90.9222 143.015V143.652H91.5407L92.4685 144.607V145.244L93.7055 145.563V146.2L95.2518 146.519V147.156H100.509V146.519L102.674 145.244H103.293V144.607L106.076 142.378L107.313 141.741L107.931 140.467L109.478 138.556H110.096L109.168 135.689L108.859 132.504L108.55 131.867V124.222L108.859 123.585L109.168 113.393L109.787 111.481V107.022L109.168 104.793V93.963L110.096 90.7778H110.715L111.024 89.1852H111.643L111.952 87.9111L113.498 86.3185H114.117L114.426 85.363L116.591 83.7704H117.518V83.1333L120.611 81.5408L122.776 81.2222V80.5852L129.27 79.3111H130.507V78.6741L134.218 77.7185L136.383 77.4L136.693 77.0815L143.496 76.4445L145.97 75.1704H146.898L147.207 74.2148L149.372 73.2593H150.918V72.6222L153.702 71.6667L160.506 69.7556L163.907 69.1185ZM165.454 71.0296L161.743 71.6667L156.794 72.9408L152.156 74.2148L147.207 76.763L144.424 78.037L141.95 78.6741L136.074 79.3111L132.363 80.2667L125.868 82.1778L119.993 84.4074L116.591 86.3185L114.117 88.8667L112.261 92.0519L111.024 96.8296V102.563L111.952 106.704V111.481L111.024 115.941L110.715 130.593L111.643 136.007L112.57 140.148L112.261 143.97L111.952 146.837V164.993L111.643 169.452L112.261 173.593L114.117 178.052L115.972 179.644L119.993 181.237L126.178 181.874L131.126 183.148L136.074 185.059L146.589 186.333L154.32 186.652L159.268 187.926L164.526 189.837L169.783 190.793L174.731 192.385L177.824 193.341L184.937 194.296L189.267 195.252L191.741 195.57H196.998L200.091 194.933L204.111 193.341L207.204 191.43L212.461 187.607L215.554 185.696L218.646 183.148L220.193 181.237V180.6H220.811L222.048 178.37V177.733L226.068 177.096L229.78 175.504L232.254 173.911L236.583 171.681L239.676 169.133L240.913 166.267V162.126L239.985 159.259L239.057 157.985H238.439L237.82 156.711L233.8 153.526L229.78 151.296L225.141 148.43L223.285 148.111L221.739 146.837L219.265 145.563L217.718 143.97L217.409 143.015V139.193L218.337 137.919V137.281L219.574 136.644L221.12 136.007L222.667 136.326L228.852 138.556L233.8 141.104L238.748 144.289L240.604 145.563L241.841 145.881L242.768 139.511V125.815L242.15 124.222L241.841 122.311V118.807L243.696 111.8L244.006 107.659L243.696 103.837V90.7778L242.459 86.637L240.604 83.7704L238.13 81.8593L231.635 79.9482L227.924 78.9926L223.594 78.3556L214.626 78.037L209.678 77.4L201.637 75.1704L192.05 74.8519L188.339 73.5778L184.318 72.3037L176.896 71.6667L171.948 71.0296H165.454Z" fill="#1D0B38"/>
<path d="M172.567 86.9556H178.443L180.607 87.2741L183.7 87.9111L188.648 88.2296L195.761 89.1852L197.307 89.8222L202.256 90.4593L204.42 91.4148L209.369 92.3704L213.08 93.6445L213.389 94.9185L212.152 95.8741L201.946 99.3778L196.07 99.6963L188.339 99.0593L185.246 98.1037L177.824 97.7852L179.68 100.015L180.607 101.926L184.009 103.519L193.596 104.474L195.452 105.43L196.998 107.341L197.307 107.978L197.617 114.667L197.926 116.578V139.511L196.998 141.741L195.452 143.333L193.596 144.607L189.885 145.563H182.154L176.896 144.289L177.206 145.881L175.35 145.563L173.804 144.926L173.185 146.519L170.093 151.933L167.928 154.8L166.382 156.711L163.289 158.941L160.506 160.215L158.341 160.852H152.465L148.754 159.578L146.28 157.985H145.661L146.28 159.896L147.826 161.17L151.537 162.763L152.774 163.081H156.485L160.196 162.444L163.289 161.17L166.382 158.941L168.856 156.074L171.639 151.933L173.494 147.793H175.969L179.061 148.748L181.535 149.704L187.72 150.978L192.359 152.252L194.524 154.163L195.761 156.393L196.38 161.17L196.689 162.444V167.222L196.38 171.681L197.307 180.281L197.926 183.467V186.015L196.689 188.881L194.215 190.793L190.194 191.748L184.628 191.111L179.989 190.793L174.422 189.519L167.928 187.289L165.144 186.652L162.67 185.378L161.124 184.104L159.887 181.556L158.031 175.185L157.722 173.593V167.222H154.63L154.939 179.963L154.011 182.511L153.393 182.83L146.589 183.148L141.022 182.511L136.383 181.874L132.672 180.281L130.198 179.007L125.25 178.052L121.539 177.415L119.374 176.778L118.137 175.185L116.591 172.319L116.281 171.044V166.267L116.591 161.17V153.526L117.209 146.2L118.446 143.652L120.302 142.696L124.631 143.015L131.126 143.652H133.291L134.837 142.378L136.383 141.741H138.548V143.333H137.311L138.548 144.607L142.259 146.519L147.207 147.793L150.919 148.43H157.722L157.104 147.156V143.333L157.722 142.378H160.196L161.743 142.696H164.526L163.907 141.422L159.887 139.193L158.341 137.281L157.413 135.052L156.794 127.089L156.485 120.4V115.941L157.722 104.474L158.341 102.563L159.578 100.97L162.361 99.6963L165.144 99.0593L166.072 96.8296L166.382 95.8741L162.361 94.9185L161.743 93.963L162.052 92.6889L167.619 89.5037L169.783 87.9111L172.567 86.9556Z" fill="#78C1CF"/>
<path d="M120.302 142.696L124.631 143.015L131.126 143.652H133.6V144.289L136.383 143.97L140.404 147.793L142.878 153.207L145.352 156.711L145.97 157.667L145.661 158.622L146.898 160.533L150.609 162.444L152.774 163.081H156.485L160.196 162.444L163.289 161.17L166.381 158.941L168.856 156.074L171.639 151.933L173.494 147.793H175.969L179.061 148.748L181.535 149.704L187.72 150.978L192.359 152.252L194.524 154.163L195.761 156.393L196.38 161.17L196.689 162.444V167.222L196.38 171.681L197.307 180.281L197.926 183.467V186.015L196.689 188.881L194.215 190.793L190.194 191.748L184.628 191.111L179.989 190.793L174.422 189.519L167.928 187.289L165.144 186.652L162.67 185.378L161.124 184.104L159.887 181.556L158.031 175.185L157.722 173.593V167.222H154.63L154.939 179.963L154.011 182.511L153.393 182.83L146.589 183.148L141.022 182.511L136.383 181.874L132.672 180.281L130.198 179.007L125.25 178.052L121.539 177.415L119.374 176.778L118.137 175.185L116.591 172.319L116.281 171.044V166.267L116.591 161.17V153.526L117.209 146.2L118.446 143.652L120.302 142.696Z" fill="#78C0CE"/>
<path d="M119.374 93.0074H122.157L125.25 93.3259L126.796 93.9629L132.054 94.9185L134.528 94.6L135.456 93.9629L137.002 93.6444H139.476L141.641 94.6L143.187 96.1926V96.8296L145.661 97.1481L149.991 98.1037L152.774 100.652L153.083 101.607V106.704L153.702 114.985L154.32 127.726V133.778L153.702 136.007L151.537 137.918L147.826 138.874L142.878 138.556L131.435 138.237L124.322 137.281L122.467 136.644L119.374 136.007L117.519 134.733L115.663 130.911V114.667L115.972 109.252L115.354 106.067V98.7407L117.209 94.2815L118.446 93.3259L119.374 93.0074Z" fill="#78C1CF"/>
<path d="M217.719 96.1926L220.502 96.5111L221.739 97.7852L222.667 100.97L222.976 108.615V127.089L222.048 130.274L220.502 133.141L218.646 135.37H218.028V136.007L213.389 139.511L209.678 141.741L206.276 144.926L204.42 145.881H202.874L201.637 143.97L201.328 140.148V124.222L201.019 122.63V116.578L202.565 106.704L203.802 103.837L205.348 101.926L209.678 99.6963L216.482 96.5111L217.719 96.1926Z" fill="#78C1CF"/>
<path d="M217.1 143.015L218.337 144.607L220.811 146.519L222.048 147.156L221.12 147.474L221.739 153.844V157.667L221.43 162.444L221.12 174.867L220.502 177.415L218.646 180.6L216.172 183.148L210.606 186.97L209.059 187.607V188.244L206.276 190.156L203.802 191.111L202.565 190.793L201.637 189.519L201.019 184.741V164.356L201.637 156.393L202.874 152.252L204.111 150.341L206.276 148.43L213.698 144.607L217.1 144.289V143.015Z" fill="#78C1CF"/>
<path d="M231.017 185.378H234.109L241.531 187.926L246.789 189.519L248.335 191.111L249.881 194.296L250.5 195.889L251.118 200.03V204.17L250.191 207.993L249.263 210.222L248.026 212.133L247.407 211.815L248.335 208.948L248.644 205.763L248.954 202.259H248.335L248.026 206.4L246.48 211.496L244.624 214.044L244.005 213.407L244.933 210.541L245.552 206.719L245.243 206.082L244.005 211.178L242.15 215L240.913 215.637L241.222 212.452L241.531 211.178V207.674L240.604 204.489H240.294V209.904L239.367 214.363L236.893 220.415L235.346 223.6L234.109 225.193L232.254 225.511L230.707 224.874L229.78 222.963L230.089 219.778L231.635 212.77L232.254 210.859L232.563 208.63V206.082L231.944 203.215L229.47 200.348L227.615 199.393H225.141L222.357 201.622L219.265 203.852L216.791 204.489H214.007L211.843 203.852L210.605 202.259V199.711L211.533 198.119L213.698 196.844L219.574 194.615L222.976 192.067L227.305 187.289L229.161 186.015L231.017 185.378Z" fill="#FEBC3C"/>
<path d="M236.893 87.9111H239.057L240.295 88.5481L241.532 91.4148L241.841 93.963V112.119L240.295 118.17L239.676 119.444L239.057 123.585L237.511 125.178L231.635 128.044L229.161 129.319L227.306 129L225.759 127.726L225.141 124.541L224.832 113.074V96.8296L226.687 93.0074L227.924 91.7333L232.254 89.5037L236.893 87.9111Z" fill="#78C1CF"/>
<path d="M172.567 86.9556H178.443L180.607 87.2741L183.7 87.9111L188.648 88.2296L195.761 89.1852L197.307 89.8222L202.256 90.4593L204.42 91.4148L209.369 92.3704L213.08 93.6445L213.389 94.9185L212.152 95.8741L201.946 99.3778L196.07 99.6963L188.339 99.0593L185.246 98.1037L177.824 97.7852L179.68 100.015L180.607 101.926L180.917 103.519V106.704H179.989L177.824 104.474L174.422 101.926L172.257 100.97L165.763 100.333L165.454 100.015V97.7852L166.382 96.5111V95.8741L162.361 94.9185L161.743 93.963L162.052 92.6889L167.619 89.5037L169.783 87.9111L172.567 86.9556Z" fill="#78C1CF"/>
<path d="M194.833 77.4H200.091L205.967 78.6741L208.441 79.9481L211.843 80.5852H220.811L227.615 81.2222L233.491 82.8148L235.037 83.7704V85.0444L230.089 87.5926L226.996 88.5481L223.285 90.4593L222.357 90.7778H211.843L207.204 90.1407L201.637 88.8667L197.617 87.9111L193.287 87.2741L191.741 86.637H188.03L180.607 85.6815L178.752 85.0444L176.896 84.0889V83.4518L181.535 81.2222L186.793 79.3111L190.194 78.037L194.833 77.4Z" fill="#78C1CF"/>
<path d="M167.619 110.526H171.02L174.113 112.119L175.35 113.074V113.711H175.969L177.824 116.896L178.752 120.081V128.044L177.515 132.185L176.278 133.459L173.185 134.733L171.639 135.689L171.33 136.326H170.711L170.402 136.963L169.165 137.281L166.072 136.326L163.598 134.096L161.743 131.23L160.815 129L160.196 123.585L160.815 118.489L162.052 115.622L163.907 113.074L165.763 111.481L167.619 110.526Z" fill="#FBFCFC"/>
<path d="M137.93 108.933L140.404 109.252L142.568 110.207L144.424 111.481L146.589 114.985L147.517 117.533L147.826 120.4V124.222L147.517 127.089L145.352 131.548L143.187 133.459L141.331 134.415H138.239L135.765 133.141L132.672 130.274L131.126 127.089L130.507 124.222V118.807L131.435 114.985L133.291 111.8L135.765 109.57L137.93 108.933Z" fill="#FCFCFC"/>
<path d="M171.948 140.148L173.495 140.785L175.659 143.333L176.278 144.926L177.206 145.244V145.881L175.35 145.563L173.804 144.926L173.185 146.519L170.093 151.933L167.928 154.8L166.382 156.711L163.289 158.941L160.506 160.215L158.341 160.852H152.465L148.754 159.578L145.97 157.667L143.496 154.8L141.022 149.704L139.476 147.156L136.383 144.289L134.219 144.607L133.6 144.289L133.909 143.015L136.383 141.741H138.548V143.333H137.311L138.548 144.607L142.259 146.519L147.208 147.793L150.919 148.43H159.269L164.835 147.156L169.165 145.563L172.567 143.652V142.696L170.402 141.741V140.785L171.948 140.148Z" fill="#1D0B38"/>
<path d="M140.404 81.5407H147.826L154.32 82.8148L155.557 83.4519L161.124 84.0889L165.763 85.363L166.691 86.3185V87.9111L164.217 89.5037L156.795 91.7333L150.919 92.3704L148.445 92.6889H143.496L140.713 91.7333H138.239L134.219 90.7778L131.126 90.4593L130.507 90.1407L126.796 89.5037L124.013 88.2296L123.395 86.9556L124.322 86L128.033 84.4074L136.693 82.1778L140.404 81.5407Z" fill="#78C1CF"/>
<path d="M185.246 254.815H188.957L192.978 256.089L196.07 258.319L198.235 260.548L199.782 263.733L200.4 267.237V268.511L196.38 270.741L191.432 272.015L189.576 272.333H185.865L180.917 271.378L178.133 269.785L176.587 267.874L176.278 266.919V263.415L177.515 259.911L178.133 258.956H178.752L179.37 257.681L182.154 255.77L185.246 254.815Z" fill="#FEBB3A"/>
<path d="M224.522 148.43L226.068 149.067L229.47 150.978L231.944 152.57L235.037 154.481L238.13 157.03L238.439 157.985L239.367 158.304L240.604 160.852L240.294 163.081L239.367 166.585L237.82 168.496L234.728 170.726L231.944 172.319H231.017V172.956L227.924 174.548L225.45 174.23L223.594 171.681L223.285 170.726L222.976 164.993L223.285 155.437L223.594 150.341L223.904 148.748L224.522 148.43Z" fill="#78C1CF"/>
<path d="M134.837 250.037H139.476L142.878 251.311L146.589 254.178L148.754 257.363L149.372 258.637L149.991 262.459L148.444 264.052L144.115 265.963L140.094 266.919H134.219L129.889 265.644L128.033 264.37L126.796 262.778L126.487 259.911L127.415 256.089L129.58 252.904L132.363 250.993L134.837 250.037Z" fill="#FEBB3A"/>
<path d="M83.1907 106.704H85.9741L87.8296 108.296V110.526L85.6648 114.667L85.3556 115.941V118.17L85.9741 120.081L87.2111 123.585V129.637L85.9741 132.822L83.8093 136.326L83.1907 137.6V138.556L80.7167 140.148L77.3148 141.422L76.6963 141.741H71.1296L67.4185 139.83L65.8722 138.237L64.3259 136.326V133.459L65.563 131.548L67.4185 130.274H73.913L77.0056 132.185L78.5519 134.096V136.326L77.9333 136.963H74.8407L73.6037 136.644H70.8204L68.3463 137.281L68.6556 139.193L70.2019 140.148L73.913 140.785L77.0056 140.467L78.5519 139.83L78.8611 138.556L80.4074 137.281L80.7167 133.778L81.3352 131.867V124.222L81.9537 123.267H82.5722V121.356V120.081L81.3352 116.896L78.5519 114.03V111.163L80.0982 108.615L82.5722 107.022L83.1907 106.704Z" fill="#FEBC3B"/>
<path d="M167 73.2593L171.948 73.5778L173.494 73.8963L182.154 74.2148L185.556 75.1704L187.102 76.763L186.793 77.7185L181.226 79.9482L175.35 82.1778L172.257 83.4519H168.237L161.743 82.1778L157.413 81.5408L153.083 80.5852L149.991 79.3111L151.228 78.0371L154.32 76.4445L161.743 74.2148L167 73.2593Z" fill="#78C1CF"/>
<path d="M211.533 244.622H212.152L214.317 248.126L214.626 251.948L213.698 254.815L211.843 257.044L207.513 260.23L205.039 262.778L203.183 265.644L201.946 266.918L201.328 264.37L200.091 261.185L197.926 258.318L195.143 255.77L191.122 254.178L188.958 253.541L190.504 251.948H192.669L196.689 253.222L199.163 254.496L197.617 252.904L194.524 251.63L192.05 250.993L192.359 250.037L192.978 249.718L196.998 250.037L200.091 251.63H201.637V250.993L200.091 250.356L197.926 249.4L194.524 248.444L194.833 247.489L196.998 247.17L199.472 248.126L201.019 248.763H205.039L208.132 247.807L209.678 247.17V246.533L211.224 244.941L211.533 244.622Z" fill="#FEBE41"/>
<path d="M163.907 239.844L165.144 240.482L166.691 243.667L167 246.215L165.763 249.082L162.67 251.311L158.959 253.222L155.248 256.089L154.011 258.319L151.846 261.185H151.228L150.609 258L148.444 254.496L147.826 253.222L146.589 252.585L143.496 250.356L141.022 249.4V248.444L142.878 248.763L148.135 251.311L147.826 250.356L146.28 249.4L142.259 248.126L141.95 247.489L142.569 247.17H145.352L149.681 249.082L150.919 249.4L149.681 248.126L146.589 246.852L143.806 245.896L144.115 245.259H147.826L152.156 246.852L152.774 247.17L152.465 246.215L146.28 243.985L147.207 243.03H149.372L152.156 243.985L157.104 244.622L159.887 243.667L162.361 242.074L163.907 239.844Z" fill="#FEBE43"/>
<path d="M167.928 115.304H171.02L172.567 116.259L174.422 118.807L175.35 121.356L175.659 124.541L175.041 128.044L173.185 131.23L171.02 132.504L170.402 132.822H168.237L166.381 131.867L164.526 129.637L163.598 127.089V121.037L165.454 117.215L167 115.622L167.928 115.304Z" fill="#1D0B38"/>
<path d="M137.93 113.393H140.404L142.568 114.667L143.496 115.622L144.733 118.807L145.043 120.081V124.541L144.115 127.407L142.259 129.637L141.331 130.274H137.93L136.074 129L134.837 127.407L133.909 124.541V118.807L134.837 116.578L136.693 114.03L137.93 113.393Z" fill="#1D0B38"/>
<path d="M238.13 127.726H239.676L240.604 128.681L240.913 129.637V142.059L240.604 145.244L238.13 143.97L233.8 141.104L228.852 138.556L224.522 136.963L227.615 133.778L230.089 132.185L232.254 131.23L235.656 129.319L238.13 127.726Z" fill="#78C1CF"/>
<path d="M167.618 108.933H170.711L173.804 109.889L176.587 112.119L179.061 115.622L179.989 118.807L180.298 120.719V127.726L179.37 131.548L178.442 133.778L180.607 134.096L181.535 135.052L179.989 135.37H175.659L173.494 136.007L171.02 137.281L170.711 136.326H171.33L171.639 135.37L174.731 133.778L176.896 132.822L177.824 130.274L178.442 128.044V120.081L177.515 116.896L175.968 114.348V113.711H175.35L174.113 112.437L171.02 110.844H167.618L164.835 112.437L162.67 114.985L161.433 117.533L160.815 120.081L160.505 124.541L161.124 129L162.98 132.822L164.835 135.052L167 136.326L169.474 137.281V137.919L168.855 138.237L166.072 137.919L163.289 136.007L161.124 133.459L159.578 130.274L158.65 125.815V121.674L159.887 116.259L161.742 113.074L162.98 111.481H163.598V110.844L165.454 109.57L167.618 108.933Z" fill="#1D0B38"/>
<path d="M136.074 107.659H141.332L144.424 109.252L146.898 112.119L148.445 115.304L149.372 118.807V125.496L148.135 129.637L146.898 132.185L144.733 134.415L141.95 135.689L137.311 135.37L134.219 133.778L130.817 130.911L129.27 126.452L128.961 123.585V119.126L129.58 115.622L130.817 112.756L132.054 110.844L134.219 108.615L136.074 107.659ZM137.93 108.933L135.456 109.889L133.291 111.8L131.435 114.985L130.507 118.807V124.222L131.435 127.726L132.982 130.593L135.765 133.141L138.239 134.415H141.332L144.115 132.822L145.661 130.911L147.517 127.089L147.826 124.222V120.4L147.517 117.533L146.28 114.667L144.424 111.481L141.641 109.57L139.476 108.933H137.93Z" fill="#1D0B38"/>
<path d="M68.9649 121.037H71.4389L73.913 121.674L77.0056 123.585L79.4797 126.452L79.7889 127.407V129.956L79.1704 130.593L77.3149 130.274L75.7686 129.319L70.8204 128.363L67.7278 129L65.563 129.956L64.326 129.637L63.3982 127.407V124.541L64.326 123.267H64.9445V122.63L67.4186 121.356L68.9649 121.037Z" fill="#FDBD3F"/>
<path d="M68.9649 113.074H72.9852L75.7686 114.03L77.6241 115.304L79.7889 117.852L80.4075 118.807V122.311L78.8612 122.63L75.7686 120.719L71.7482 119.763L67.7278 120.082L65.2537 121.037L64.0167 120.719L63.3982 119.444L63.7075 117.215L64.9445 115.304L67.1093 113.711L68.9649 113.074Z" fill="#FEBD41"/>
<path d="M168.546 247.489H168.855V249.719L167.928 251.948L166.381 253.859L162.98 255.77H161.124L160.505 255.452L158.031 257.363L156.794 258.956L154.63 262.778L153.083 265.326L150.609 267.237L147.517 268.83L142.878 270.422L141.331 270.741H133.6L128.033 268.83L126.178 266.6L125.868 264.37L127.105 265.007L128.652 266.281L131.744 267.556L135.455 268.193H140.094L145.352 266.919L148.444 265.644L151.228 263.733H151.846V263.096L153.083 261.822L153.392 261.185H154.011L154.63 259.911L156.485 257.363L158.959 255.133L162.052 253.222L165.454 251.311L167 250.037L168.546 247.489Z" fill="#FEBC3E"/>
<path d="M215.863 253.541H216.172V256.726L214.935 258.956L213.389 260.548L211.843 261.822L210.606 262.459H209.059L207.204 265.007L205.039 268.83L202.565 271.696L200.4 272.97L197.926 274.244L193.906 275.519L190.194 275.837H182.772L179.37 274.882L176.896 273.289V272.652H176.278L175.969 269.785L177.206 270.422L179.68 272.015L183.391 273.289H191.741L196.38 272.015L200.091 270.422L202.565 268.511L205.348 265.007L207.513 262.141L209.987 259.911L213.389 257.363L214.626 255.77L215.863 253.541Z" fill="#FCBC3D"/>
<path d="M137.62 140.467H139.167L140.094 141.104L147.517 141.422L151.846 142.378L153.393 143.97L154.63 148.748H150.919L144.424 147.474L141.95 146.519L137.62 144.289L137.311 143.333H138.548V141.741L135.456 142.378L134.219 142.696L135.765 141.104L137.62 140.467Z" fill="#78C1CF"/>
<path d="M169.165 94.2815H172.257L174.731 95.237L176.587 96.5111L178.752 98.7407L179.989 100.97L180.607 101.926L180.917 103.519V106.704H179.989L177.824 104.474L174.422 101.926L172.257 100.97L165.763 100.333L165.454 100.015V97.7852L167.618 94.9185L169.165 94.2815Z" fill="#1D0B38"/>
<path d="M234.109 180.281H238.13L241.532 180.919L245.861 182.511L247.717 183.467L248.645 185.378L248.335 186.97L247.098 187.926L241.532 186.97L235.346 185.059L231.945 183.467L231.635 182.511L233.182 180.6L234.109 180.281Z" fill="#FEBE43"/>
<path d="M205.967 235.704L207.822 236.022L209.987 237.933L210.606 239.526V241.756L209.678 244.622L208.131 246.215L205.348 247.489L203.183 247.807L199.163 247.17L196.38 245.259L195.143 243.667V240.481L195.452 239.844L196.689 240.481L197.307 242.393L200.4 243.348L201.328 243.667H203.493L206.276 242.393L207.822 240.8L208.131 239.207L207.513 237.615L205.967 236.341V235.704Z" fill="#FDBD40"/>
<path d="M137.002 93.6444H139.476L141.641 94.6L143.496 96.8296V99.3778L136.383 100.015L132.672 101.926L130.817 103.519H129.889V100.652L130.817 98.1037L132.363 95.8741L134.528 94.6L135.456 93.963L137.002 93.6444Z" fill="#1D0B38"/>
<path d="M158.341 231.563L159.887 231.881L161.743 233.474L162.361 235.067V238.57L161.124 241.118L159.268 242.711L158.031 243.348H152.465L149.372 241.756L147.517 239.526V236.022L148.135 235.385H149.063L149.991 237.933L151.846 239.207L153.083 239.526H155.557L158.65 237.933L159.578 237.615L159.887 234.748L158.341 231.563Z" fill="#FDC048"/>
<path d="M165.144 151.933H167V153.207L165.144 155.437L161.743 157.985L159.268 158.941L157.413 159.259H153.393L150.609 158.622L149.063 157.985L148.754 157.03L150.3 155.437L152.774 153.844H156.485L157.104 154.8L155.867 156.393L156.176 156.711L157.722 155.756L160.506 153.526L163.907 152.252L165.144 151.933Z" fill="#FCFCFC"/>
<path d="M227.615 205.763H230.398L230.707 207.993L229.161 208.311L227.615 207.674L228.543 210.859L230.398 211.496L229.78 215L229.47 216.911L227.924 216.593L225.45 214.363L224.213 211.815V209.267L225.45 206.718L227.615 205.763Z" fill="#FEBD3F"/>
<path d="M86.5927 134.415L87.8297 135.052L88.139 135.689L87.8297 138.556L85.9742 141.422L82.5723 143.97L80.4075 144.607H78.5519L78.2427 143.015L81.9538 141.104L83.8093 138.874L84.1186 137.6L85.3556 136.007L86.5927 134.415Z" fill="#FDBD42"/>
<path d="M146.898 163.081L148.444 163.4L149.991 164.037L152.774 164.674H158.341L162.052 164.037L163.598 163.719V164.356L161.124 165.948L158.032 166.904H153.393L150.919 166.267L147.826 164.356L146.898 163.081Z" fill="#1D0B38"/>
<path d="M172.257 125.178L173.804 125.496V128.044L172.567 129.956L171.33 131.23L168.546 131.548L167 130.593L165.454 128.044L165.145 126.133L166.072 125.815L167.619 129L168.237 129.319H170.093L171.639 127.726L172.257 125.178Z" fill="#79C1CF"/>
<path d="M142.259 123.267L143.496 123.585V126.133L141.641 128.681L140.404 129.319L137.93 129L136.074 127.407L135.456 125.815V123.585L136.074 123.904L137.62 126.77L138.548 127.407L140.713 127.089L141.641 124.859L142.259 123.267Z" fill="#83C6D2"/>
<path d="M168.546 116.578L170.093 116.896L171.33 118.17V121.037L170.093 121.993L168.237 121.674L167 120.081L167.309 117.852L168.546 116.578Z" fill="#FDFDFD"/>
<path d="M138.548 114.985L140.404 115.622L141.022 116.578V118.807L140.404 119.763H138.548L137.002 118.807L136.693 116.896L137.62 115.304L138.548 114.985Z" fill="#FCFCFC"/>
<path d="M240.913 189.837L242.459 191.43L243.078 193.341V197.8L242.15 198.119L241.222 193.022L240.913 189.837Z" fill="#1D0B38"/>
<path d="M243.696 190.156L244.624 190.474L245.861 194.296V198.119H245.243L244.624 196.207L244.006 193.022L243.696 190.156Z" fill="#1D0B38"/>
<path d="M245.861 190.793L247.098 191.43L248.026 193.022L248.644 194.615V197.481L247.717 198.119L246.48 193.022L245.861 190.793Z" fill="#1D0B38"/>
</svg>
